<svg width="1064" height="178" viewBox="0 0 1064 178" xmlns="http://www.w3.org/2000/svg"><title>bg</title><desc>Created with Sketch.</desc><g fill="none"><path fill-opacity=".89" fill="#42A898" d="M0 0h1064v178H0z"/><g transform="rotate(-12 977.884 63.884) translate(940.884 26.884)" stroke="#fff" stroke-width="6"><ellipse cx="37" cy="36.848" rx="37" ry="36.848"/><path d="M37.306 1.218v72.635M37.153 36.086L4.28 53.596"/></g><g><path d="M741.066 179.722L806.472 66.02l44.68 95.76 82.915-40.697 56.197 41.127 25.74-57.346 46.636 60.147 19.71-25.323 22.38 40.035H741.065" id="Fill-1" fill="#E64C66"/><path d="M807.39 179.722L860.83 52.27l44.217 127.452H807.39" id="Fill-2" fill="#fff"/><path d="M956.18 179.722l28.95-90.333 31.53 83.007 37.632-120.128 31.788 127.452h-129.9" id="Fill-3" fill="#2D3E50"/></g><g fill="#fff"><path d="M1047.44 164.807h2.448v.817h-2.448v-.817zm-801.894-46h2.447v.817h-2.447v-.817zm-4.897 0h2.448v.817h-2.45v-.817zm-4.897 0h2.45v.817h-2.45v-.817zm-4.893 0h2.45v.817h-2.45v-.817zm-4.895 0h2.448v.817h-2.448v-.817zm-4.894 0h2.448v.817h-2.447v-.817zm-4.896 0h2.448v.817h-2.448v-.817zm-4.894 0h2.447v.817h-2.447v-.817zm-4.895 0h2.447v.817h-2.447v-.817zm-4.894 0h2.448v.817h-2.447v-.817zm-4.896 0h2.447v.817h-2.446v-.817zm-4.894 0h2.447v.817H191.7v-.817zm-4.895 0h2.447v.817h-2.447v-.817zm-4.895 0h2.448v.817h-2.448v-.817zm-4.894 0h2.447v.817h-2.447v-.817zm-4.895 0h2.448v.817h-2.447v-.817zm-4.893 0h2.447v.817h-2.447v-.817zm-4.895 0h2.447v.817h-2.448v-.817zm-4.896 0h2.447v.817h-2.447v-.817zm-4.897 0h2.448v.817h-2.45v-.817zm-4.894 0h2.446v.817h-2.446v-.817zm-4.894 0h2.447v.817h-2.448v-.817zm-4.897 0h2.448v.817h-2.448v-.817zm-4.894 0h2.448v.817h-2.447v-.817zm-4.892 0h2.445v.817h-2.445v-.817zm-4.897 0h2.45v.817h-2.45v-.817zm-4.893 0h2.447v.817h-2.447v-.817zm-4.897 0h2.448v.817h-2.448v-.817zm-4.894 0h2.447v.817h-2.447v-.817zm-4.897 0h2.45v.817h-2.45v-.817zm-4.895 0h2.45v.817h-2.45v-.817zm-4.895 0h2.45v.817H93.8v-.817zm-4.893 0h2.448v.817h-2.448v-.817zm-4.896 0h2.448v.817H84.01v-.817zm-4.895 0h2.45v.817h-2.45v-.817zm-4.895 0h2.447v.817H74.22v-.817zm-4.893 0h2.446v.817h-2.446v-.817zm-4.896 0h2.448v.817H64.43v-.817zm-4.894 0h2.447v.817h-2.447v-.817zm-4.894 0h2.447v.817H54.64v-.817zm-4.895 0h2.447v.817h-2.447v-.817zm-4.895 0H47.3v.817h-2.448v-.817zm-4.894 0h2.447v.817h-2.447v-.817zm-4.897 0h2.45v.817h-2.45v-.817zm-4.893 0h2.447v.817h-2.447v-.817zm-4.897 0h2.45v.817h-2.45v-.817zm-4.894 0h2.45v.817h-2.45v-.817zm-4.895 0h2.45v.817h-2.45v-.817zm-4.892 0h2.448v.817h-2.448v-.817zm-4.896 0h2.45v.817H5.69v-.817zm-4.895 0h2.448v.817H.797v-.817z" id="Fill-1"/><path d="M1047.44 135.335h2.448v.82h-2.448v-.82zm-801.894-46h2.447v.82h-2.447v-.82zm-4.897 0h2.448v.82h-2.45v-.82zm-4.897 0h2.45v.82h-2.45v-.82zm-4.893 0h2.45v.82h-2.45v-.82zm-4.895 0h2.448v.82h-2.448v-.82zm-4.894 0h2.448v.82h-2.447v-.82zm-4.896 0h2.448v.82h-2.448v-.82zm-4.894 0h2.447v.82h-2.447v-.82zm-4.895 0h2.447v.82h-2.447v-.82zm-4.894 0h2.448v.82h-2.447v-.82zm-4.896 0h2.447v.82h-2.446v-.82zm-4.894 0h2.447v.82H191.7v-.82zm-4.895 0h2.447v.82h-2.447v-.82zm-4.895 0h2.448v.82h-2.448v-.82zm-4.894 0h2.447v.82h-2.447v-.82zm-4.895 0h2.448v.82h-2.447v-.82zm-4.893 0h2.447v.82h-2.447v-.82zm-4.895 0h2.447v.82h-2.448v-.82zm-4.896 0h2.447v.82h-2.447v-.82zm-4.897 0h2.448v.82h-2.45v-.82zm-4.894 0h2.446v.82h-2.446v-.82zm-4.894 0h2.447v.82h-2.448v-.82zm-4.897 0h2.448v.82h-2.448v-.82zm-4.894 0h2.448v.82h-2.447v-.82zm-4.892 0h2.445v.82h-2.445v-.82zm-4.897 0h2.45v.82h-2.45v-.82zm-4.893 0h2.447v.82h-2.447v-.82zm-4.897 0h2.448v.82h-2.448v-.82zm-4.894 0h2.447v.82h-2.447v-.82zm-4.897 0h2.45v.82h-2.45v-.82zm-4.895 0h2.45v.82h-2.45v-.82zm-4.895 0h2.45v.82H93.8v-.82zm-4.893 0h2.448v.82h-2.448v-.82zm-4.896 0h2.448v.82H84.01v-.82zm-4.895 0h2.45v.82h-2.45v-.82zm-4.895 0h2.447v.82H74.22v-.82zm-4.893 0h2.446v.82h-2.446v-.82zm-4.896 0h2.448v.82H64.43v-.82zm-4.894 0h2.447v.82h-2.447v-.82zm-4.894 0h2.447v.82H54.64v-.82zm-4.895 0h2.447v.82h-2.447v-.82zm-4.895 0H47.3v.82h-2.448v-.82zm-4.894 0h2.447v.82h-2.447v-.82zm-4.897 0h2.45v.82h-2.45v-.82zm-4.893 0h2.447v.82h-2.447v-.82zm-4.897 0h2.45v.82h-2.45v-.82zm-4.894 0h2.45v.82h-2.45v-.82zm-4.895 0h2.45v.82h-2.45v-.82zm-4.892 0h2.448v.82h-2.448v-.82zm-4.896 0h2.45v.82H5.69v-.82zm-4.895 0h2.448v.82H.797v-.82z" id="Fill-2"/><path d="M1047.44 105.867h2.448v.817h-2.448v-.817zm-801.894-46h2.447v.817h-2.447v-.817zm-4.897 0h2.448v.817h-2.45v-.817zm-4.897 0h2.45v.817h-2.45v-.817zm-4.893 0h2.45v.817h-2.45v-.817zm-4.895 0h2.448v.817h-2.448v-.817zm-4.894 0h2.448v.817h-2.447v-.817zm-4.896 0h2.448v.817h-2.448v-.817zm-4.894 0h2.447v.817h-2.447v-.817zm-4.895 0h2.447v.817h-2.447v-.817zm-4.894 0h2.448v.817h-2.447v-.817zm-4.896 0h2.447v.817h-2.446v-.817zm-4.894 0h2.447v.817H191.7v-.817zm-4.895 0h2.447v.817h-2.447v-.817zm-4.895 0h2.448v.817h-2.448v-.817zm-4.894 0h2.447v.817h-2.447v-.817zm-4.895 0h2.448v.817h-2.447v-.817zm-4.893 0h2.447v.817h-2.447v-.817zm-4.895 0h2.447v.817h-2.448v-.817zm-4.896 0h2.447v.817h-2.447v-.817zm-4.897 0h2.448v.817h-2.45v-.817zm-4.894 0h2.446v.817h-2.446v-.817zm-4.894 0h2.447v.817h-2.448v-.817zm-4.897 0h2.448v.817h-2.448v-.817zm-4.894 0h2.448v.817h-2.447v-.817zm-4.892 0h2.445v.817h-2.445v-.817zm-4.897 0h2.45v.817h-2.45v-.817zm-4.893 0h2.447v.817h-2.447v-.817zm-4.897 0h2.448v.817h-2.448v-.817zm-4.894 0h2.447v.817h-2.447v-.817zm-4.897 0h2.45v.817h-2.45v-.817zm-4.895 0h2.45v.817h-2.45v-.817zm-4.895 0h2.45v.817H93.8v-.817zm-4.893 0h2.448v.817h-2.448v-.817zm-4.896 0h2.448v.817H84.01v-.817zm-4.895 0h2.45v.817h-2.45v-.817zm-4.895 0h2.447v.817H74.22v-.817zm-4.893 0h2.446v.817h-2.446v-.817zm-4.896 0h2.448v.817H64.43v-.817zm-4.894 0h2.447v.817h-2.447v-.817zm-4.894 0h2.447v.817H54.64v-.817zm-4.895 0h2.447v.817h-2.447v-.817zm-4.895 0H47.3v.817h-2.448v-.817zm-4.894 0h2.447v.817h-2.447v-.817zm-4.897 0h2.45v.817h-2.45v-.817zm-4.893 0h2.447v.817h-2.447v-.817zm-4.897 0h2.45v.817h-2.45v-.817zm-4.894 0h2.45v.817h-2.45v-.817zm-4.895 0h2.45v.817h-2.45v-.817zm-4.892 0h2.448v.817h-2.448v-.817zm-4.896 0h2.45v.817H5.69v-.817zm-4.895 0h2.448v.817H.797v-.817z" id="Fill-3"/><path d="M1047.44 76.397h2.448v.817h-2.448v-.817zm-801.894-46h2.447v.817h-2.447v-.817zm-4.897 0h2.448v.817h-2.45v-.817zm-4.897 0h2.45v.817h-2.45v-.817zm-4.893 0h2.45v.817h-2.45v-.817zm-4.895 0h2.448v.817h-2.448v-.817zm-4.894 0h2.448v.817h-2.447v-.817zm-4.896 0h2.448v.817h-2.448v-.817zm-4.894 0h2.447v.817h-2.447v-.817zm-4.895 0h2.447v.817h-2.447v-.817zm-4.894 0h2.448v.817h-2.447v-.817zm-4.896 0h2.447v.817h-2.446v-.817zm-4.894 0h2.447v.817H191.7v-.817zm-4.895 0h2.447v.817h-2.447v-.817zm-4.895 0h2.448v.817h-2.448v-.817zm-4.894 0h2.447v.817h-2.447v-.817zm-4.895 0h2.448v.817h-2.447v-.817zm-4.893 0h2.447v.817h-2.447v-.817zm-4.895 0h2.447v.817h-2.448v-.817zm-4.896 0h2.447v.817h-2.447v-.817zm-4.897 0h2.448v.817h-2.45v-.817zm-4.894 0h2.446v.817h-2.446v-.817zm-4.894 0h2.447v.817h-2.448v-.817zm-4.897 0h2.448v.817h-2.448v-.817zm-4.894 0h2.448v.817h-2.447v-.817zm-4.892 0h2.445v.817h-2.445v-.817zm-4.897 0h2.45v.817h-2.45v-.817zm-4.893 0h2.447v.817h-2.447v-.817zm-4.897 0h2.448v.817h-2.448v-.817zm-4.894 0h2.447v.817h-2.447v-.817zm-4.897 0h2.45v.817h-2.45v-.817zm-4.895 0h2.45v.817h-2.45v-.817zm-4.895 0h2.45v.817H93.8v-.817zm-4.893 0h2.448v.817h-2.448v-.817zm-4.896 0h2.448v.817H84.01v-.817zm-4.895 0h2.45v.817h-2.45v-.817zm-4.895 0h2.447v.817H74.22v-.817zm-4.893 0h2.446v.817h-2.446v-.817zm-4.896 0h2.448v.817H64.43v-.817zm-4.894 0h2.447v.817h-2.447v-.817zm-4.894 0h2.447v.817H54.64v-.817zm-4.895 0h2.447v.817h-2.447v-.817zm-4.895 0H47.3v.817h-2.448v-.817zm-4.894 0h2.447v.817h-2.447v-.817zm-4.897 0h2.45v.817h-2.45v-.817zm-4.893 0h2.447v.817h-2.447v-.817zm-4.897 0h2.45v.817h-2.45v-.817zm-4.894 0h2.45v.817h-2.45v-.817zm-4.895 0h2.45v.817h-2.45v-.817zm-4.892 0h2.448v.817h-2.448v-.817zm-4.896 0h2.45v.817H5.69v-.817zm-4.895 0h2.448v.817H.797v-.817z" id="Fill-4"/><path d="M1047.44 46.93h2.448v.816h-2.448v-.817zm-801.894-46h2.447v.816h-2.447V.93zm-4.897 0h2.448v.816h-2.45V.93zm-4.897 0h2.45v.816h-2.45V.93zm-4.893 0h2.45v.816h-2.45V.93zm-4.895 0h2.448v.816h-2.448V.93zm-4.894 0h2.448v.816h-2.447V.93zm-4.896 0h2.448v.816h-2.448V.93zm-4.894 0h2.447v.816h-2.447V.93zm-4.895 0h2.447v.816h-2.447V.93zm-4.894 0h2.448v.816h-2.447V.93zm-4.896 0h2.447v.816h-2.446V.93zm-4.894 0h2.447v.816H191.7V.93zm-4.895 0h2.447v.816h-2.447V.93zm-4.895 0h2.448v.816h-2.448V.93zm-4.894 0h2.447v.816h-2.447V.93zm-4.895 0h2.448v.816h-2.447V.93zm-4.893 0h2.447v.816h-2.447V.93zm-4.895 0h2.447v.816h-2.448V.93zm-4.896 0h2.447v.816h-2.447V.93zm-4.897 0h2.448v.816h-2.45V.93zm-4.894 0h2.446v.816h-2.446V.93zm-4.894 0h2.447v.816h-2.448V.93zm-4.897 0h2.448v.816h-2.448V.93zm-4.894 0h2.448v.816h-2.447V.93zm-4.892 0h2.445v.816h-2.445V.93zm-4.897 0h2.45v.816h-2.45V.93zm-4.893 0h2.447v.816h-2.447V.93zm-4.897 0h2.448v.816h-2.448V.93zm-4.894 0h2.447v.816h-2.447V.93zm-4.897 0h2.45v.816h-2.45V.93zm-4.895 0h2.45v.816h-2.45V.93zM93.8.93h2.45v.816H93.8V.93zm-4.893 0h2.448v.816h-2.448V.93zm-4.896 0h2.448v.816H84.01V.93zm-4.895 0h2.45v.816h-2.45V.93zm-4.895 0h2.447v.816H74.22V.93zm-4.893 0h2.446v.816h-2.446V.93zm-4.896 0h2.448v.816H64.43V.93zm-4.894 0h2.447v.816h-2.447V.93zm-4.894 0h2.447v.816H54.64V.93zm-4.895 0h2.447v.816h-2.447V.93zm-4.895 0H47.3v.816h-2.448V.93zm-4.894 0h2.447v.816h-2.447V.93zm-4.897 0h2.45v.816h-2.45V.93zm-4.893 0h2.447v.816h-2.447V.93zm-4.897 0h2.45v.816h-2.45V.93zm-4.894 0h2.45v.816h-2.45V.93zm-4.895 0h2.45v.816h-2.45V.93zm-4.892 0h2.448v.816h-2.448V.93zm-4.896 0h2.45v.816H5.69V.93zM.797.93h2.448v.816H.797V.93z" id="Fill-5"/></g><g fill="#fff"><path d="M274.44 161.807h2.448v.817h-2.448v-.817zm-28.894-43h2.447v.817h-2.447v-.817zm-4.897 0h2.448v.817h-2.45v-.817zm-4.897 0h2.45v.817h-2.45v-.817zm-4.893 0h2.45v.817h-2.45v-.817zm-4.895 0h2.448v.817h-2.448v-.817zm-4.894 0h2.448v.817h-2.447v-.817zm-4.896 0h2.448v.817h-2.448v-.817zm-4.894 0h2.447v.817h-2.447v-.817zm-4.895 0h2.447v.817h-2.447v-.817zm-4.894 0h2.448v.817h-2.447v-.817zm-4.896 0h2.447v.817h-2.446v-.817zm-4.894 0h2.447v.817H191.7v-.817zm-4.895 0h2.447v.817h-2.447v-.817zm-4.895 0h2.448v.817h-2.448v-.817zm-4.894 0h2.447v.817h-2.447v-.817zm-4.895 0h2.448v.817h-2.447v-.817zm-4.893 0h2.447v.817h-2.447v-.817zm-4.895 0h2.447v.817h-2.448v-.817zm-4.896 0h2.447v.817h-2.447v-.817zm-4.897 0h2.448v.817h-2.45v-.817zm-4.894 0h2.446v.817h-2.446v-.817zm-4.894 0h2.447v.817h-2.448v-.817zm-4.897 0h2.448v.817h-2.448v-.817zm-4.894 0h2.448v.817h-2.447v-.817zm-4.892 0h2.445v.817h-2.445v-.817zm-4.897 0h2.45v.817h-2.45v-.817zm-4.893 0h2.447v.817h-2.447v-.817zm-4.897 0h2.448v.817h-2.448v-.817zm-4.894 0h2.447v.817h-2.447v-.817zm-4.897 0h2.45v.817h-2.45v-.817zm-4.895 0h2.45v.817h-2.45v-.817zm-4.895 0h2.45v.817H93.8v-.817zm-4.893 0h2.448v.817h-2.448v-.817zm-4.896 0h2.448v.817H84.01v-.817zm-4.895 0h2.45v.817h-2.45v-.817zm-4.895 0h2.447v.817H74.22v-.817zm-4.893 0h2.446v.817h-2.446v-.817zm-4.896 0h2.448v.817H64.43v-.817zm-4.894 0h2.447v.817h-2.447v-.817zm-4.894 0h2.447v.817H54.64v-.817zm-4.895 0h2.447v.817h-2.447v-.817zm-4.895 0H47.3v.817h-2.448v-.817zm-4.894 0h2.447v.817h-2.447v-.817zm-4.897 0h2.45v.817h-2.45v-.817zm-4.893 0h2.447v.817h-2.447v-.817zm-4.897 0h2.45v.817h-2.45v-.817zm-4.894 0h2.45v.817h-2.45v-.817zm-4.895 0h2.45v.817h-2.45v-.817zm-4.892 0h2.448v.817h-2.448v-.817zm-4.896 0h2.45v.817H5.69v-.817zm-4.895 0h2.448v.817H.797v-.817z" id="Fill-1"/><path d="M274.44 132.335h2.448v.82h-2.448v-.82zm-28.894-43h2.447v.82h-2.447v-.82zm-4.897 0h2.448v.82h-2.45v-.82zm-4.897 0h2.45v.82h-2.45v-.82zm-4.893 0h2.45v.82h-2.45v-.82zm-4.895 0h2.448v.82h-2.448v-.82zm-4.894 0h2.448v.82h-2.447v-.82zm-4.896 0h2.448v.82h-2.448v-.82zm-4.894 0h2.447v.82h-2.447v-.82zm-4.895 0h2.447v.82h-2.447v-.82zm-4.894 0h2.448v.82h-2.447v-.82zm-4.896 0h2.447v.82h-2.446v-.82zm-4.894 0h2.447v.82H191.7v-.82zm-4.895 0h2.447v.82h-2.447v-.82zm-4.895 0h2.448v.82h-2.448v-.82zm-4.894 0h2.447v.82h-2.447v-.82zm-4.895 0h2.448v.82h-2.447v-.82zm-4.893 0h2.447v.82h-2.447v-.82zm-4.895 0h2.447v.82h-2.448v-.82zm-4.896 0h2.447v.82h-2.447v-.82zm-4.897 0h2.448v.82h-2.45v-.82zm-4.894 0h2.446v.82h-2.446v-.82zm-4.894 0h2.447v.82h-2.448v-.82zm-4.897 0h2.448v.82h-2.448v-.82zm-4.894 0h2.448v.82h-2.447v-.82zm-4.892 0h2.445v.82h-2.445v-.82zm-4.897 0h2.45v.82h-2.45v-.82zm-4.893 0h2.447v.82h-2.447v-.82zm-4.897 0h2.448v.82h-2.448v-.82zm-4.894 0h2.447v.82h-2.447v-.82zm-4.897 0h2.45v.82h-2.45v-.82zm-4.895 0h2.45v.82h-2.45v-.82zm-4.895 0h2.45v.82H93.8v-.82zm-4.893 0h2.448v.82h-2.448v-.82zm-4.896 0h2.448v.82H84.01v-.82zm-4.895 0h2.45v.82h-2.45v-.82zm-4.895 0h2.447v.82H74.22v-.82zm-4.893 0h2.446v.82h-2.446v-.82zm-4.896 0h2.448v.82H64.43v-.82zm-4.894 0h2.447v.82h-2.447v-.82zm-4.894 0h2.447v.82H54.64v-.82zm-4.895 0h2.447v.82h-2.447v-.82zm-4.895 0H47.3v.82h-2.448v-.82zm-4.894 0h2.447v.82h-2.447v-.82zm-4.897 0h2.45v.82h-2.45v-.82zm-4.893 0h2.447v.82h-2.447v-.82zm-4.897 0h2.45v.82h-2.45v-.82zm-4.894 0h2.45v.82h-2.45v-.82zm-4.895 0h2.45v.82h-2.45v-.82zm-4.892 0h2.448v.82h-2.448v-.82zm-4.896 0h2.45v.82H5.69v-.82zm-4.895 0h2.448v.82H.797v-.82z" id="Fill-2"/><path d="M274.44 102.867h2.448v.817h-2.448v-.817zm-28.894-43h2.447v.817h-2.447v-.817zm-4.897 0h2.448v.817h-2.45v-.817zm-4.897 0h2.45v.817h-2.45v-.817zm-4.893 0h2.45v.817h-2.45v-.817zm-4.895 0h2.448v.817h-2.448v-.817zm-4.894 0h2.448v.817h-2.447v-.817zm-4.896 0h2.448v.817h-2.448v-.817zm-4.894 0h2.447v.817h-2.447v-.817zm-4.895 0h2.447v.817h-2.447v-.817zm-4.894 0h2.448v.817h-2.447v-.817zm-4.896 0h2.447v.817h-2.446v-.817zm-4.894 0h2.447v.817H191.7v-.817zm-4.895 0h2.447v.817h-2.447v-.817zm-4.895 0h2.448v.817h-2.448v-.817zm-4.894 0h2.447v.817h-2.447v-.817zm-4.895 0h2.448v.817h-2.447v-.817zm-4.893 0h2.447v.817h-2.447v-.817zm-4.895 0h2.447v.817h-2.448v-.817zm-4.896 0h2.447v.817h-2.447v-.817zm-4.897 0h2.448v.817h-2.45v-.817zm-4.894 0h2.446v.817h-2.446v-.817zm-4.894 0h2.447v.817h-2.448v-.817zm-4.897 0h2.448v.817h-2.448v-.817zm-4.894 0h2.448v.817h-2.447v-.817zm-4.892 0h2.445v.817h-2.445v-.817zm-4.897 0h2.45v.817h-2.45v-.817zm-4.893 0h2.447v.817h-2.447v-.817zm-4.897 0h2.448v.817h-2.448v-.817zm-4.894 0h2.447v.817h-2.447v-.817zm-4.897 0h2.45v.817h-2.45v-.817zm-4.895 0h2.45v.817h-2.45v-.817zm-4.895 0h2.45v.817H93.8v-.817zm-4.893 0h2.448v.817h-2.448v-.817zm-4.896 0h2.448v.817H84.01v-.817zm-4.895 0h2.45v.817h-2.45v-.817zm-4.895 0h2.447v.817H74.22v-.817zm-4.893 0h2.446v.817h-2.446v-.817zm-4.896 0h2.448v.817H64.43v-.817zm-4.894 0h2.447v.817h-2.447v-.817zm-4.894 0h2.447v.817H54.64v-.817zm-4.895 0h2.447v.817h-2.447v-.817zm-4.895 0H47.3v.817h-2.448v-.817zm-4.894 0h2.447v.817h-2.447v-.817zm-4.897 0h2.45v.817h-2.45v-.817zm-4.893 0h2.447v.817h-2.447v-.817zm-4.897 0h2.45v.817h-2.45v-.817zm-4.894 0h2.45v.817h-2.45v-.817zm-4.895 0h2.45v.817h-2.45v-.817zm-4.892 0h2.448v.817h-2.448v-.817zm-4.896 0h2.45v.817H5.69v-.817zm-4.895 0h2.448v.817H.797v-.817z" id="Fill-3"/><path d="M274.44 73.397h2.448v.817h-2.448v-.817zm-28.894-43h2.447v.817h-2.447v-.817zm-4.897 0h2.448v.817h-2.45v-.817zm-4.897 0h2.45v.817h-2.45v-.817zm-4.893 0h2.45v.817h-2.45v-.817zm-4.895 0h2.448v.817h-2.448v-.817zm-4.894 0h2.448v.817h-2.447v-.817zm-4.896 0h2.448v.817h-2.448v-.817zm-4.894 0h2.447v.817h-2.447v-.817zm-4.895 0h2.447v.817h-2.447v-.817zm-4.894 0h2.448v.817h-2.447v-.817zm-4.896 0h2.447v.817h-2.446v-.817zm-4.894 0h2.447v.817H191.7v-.817zm-4.895 0h2.447v.817h-2.447v-.817zm-4.895 0h2.448v.817h-2.448v-.817zm-4.894 0h2.447v.817h-2.447v-.817zm-4.895 0h2.448v.817h-2.447v-.817zm-4.893 0h2.447v.817h-2.447v-.817zm-4.895 0h2.447v.817h-2.448v-.817zm-4.896 0h2.447v.817h-2.447v-.817zm-4.897 0h2.448v.817h-2.45v-.817zm-4.894 0h2.446v.817h-2.446v-.817zm-4.894 0h2.447v.817h-2.448v-.817zm-4.897 0h2.448v.817h-2.448v-.817zm-4.894 0h2.448v.817h-2.447v-.817zm-4.892 0h2.445v.817h-2.445v-.817zm-4.897 0h2.45v.817h-2.45v-.817zm-4.893 0h2.447v.817h-2.447v-.817zm-4.897 0h2.448v.817h-2.448v-.817zm-4.894 0h2.447v.817h-2.447v-.817zm-4.897 0h2.45v.817h-2.45v-.817zm-4.895 0h2.45v.817h-2.45v-.817zm-4.895 0h2.45v.817H93.8v-.817zm-4.893 0h2.448v.817h-2.448v-.817zm-4.896 0h2.448v.817H84.01v-.817zm-4.895 0h2.45v.817h-2.45v-.817zm-4.895 0h2.447v.817H74.22v-.817zm-4.893 0h2.446v.817h-2.446v-.817zm-4.896 0h2.448v.817H64.43v-.817zm-4.894 0h2.447v.817h-2.447v-.817zm-4.894 0h2.447v.817H54.64v-.817zm-4.895 0h2.447v.817h-2.447v-.817zm-4.895 0H47.3v.817h-2.448v-.817zm-4.894 0h2.447v.817h-2.447v-.817zm-4.897 0h2.45v.817h-2.45v-.817zm-4.893 0h2.447v.817h-2.447v-.817zm-4.897 0h2.45v.817h-2.45v-.817zm-4.894 0h2.45v.817h-2.45v-.817zm-4.895 0h2.45v.817h-2.45v-.817zm-4.892 0h2.448v.817h-2.448v-.817zm-4.896 0h2.45v.817H5.69v-.817zm-4.895 0h2.448v.817H.797v-.817z" id="Fill-4"/><path d="M274.44 43.93h2.448v.816h-2.448v-.817zm-28.894-43h2.447v.816h-2.447V.93zm-4.897 0h2.448v.816h-2.45V.93zm-4.897 0h2.45v.816h-2.45V.93zm-4.893 0h2.45v.816h-2.45V.93zm-4.895 0h2.448v.816h-2.448V.93zm-4.894 0h2.448v.816h-2.447V.93zm-4.896 0h2.448v.816h-2.448V.93zm-4.894 0h2.447v.816h-2.447V.93zm-4.895 0h2.447v.816h-2.447V.93zm-4.894 0h2.448v.816h-2.447V.93zm-4.896 0h2.447v.816h-2.446V.93zm-4.894 0h2.447v.816H191.7V.93zm-4.895 0h2.447v.816h-2.447V.93zm-4.895 0h2.448v.816h-2.448V.93zm-4.894 0h2.447v.816h-2.447V.93zm-4.895 0h2.448v.816h-2.447V.93zm-4.893 0h2.447v.816h-2.447V.93zm-4.895 0h2.447v.816h-2.448V.93zm-4.896 0h2.447v.816h-2.447V.93zm-4.897 0h2.448v.816h-2.45V.93zm-4.894 0h2.446v.816h-2.446V.93zm-4.894 0h2.447v.816h-2.448V.93zm-4.897 0h2.448v.816h-2.448V.93zm-4.894 0h2.448v.816h-2.447V.93zm-4.892 0h2.445v.816h-2.445V.93zm-4.897 0h2.45v.816h-2.45V.93zm-4.893 0h2.447v.816h-2.447V.93zm-4.897 0h2.448v.816h-2.448V.93zm-4.894 0h2.447v.816h-2.447V.93zm-4.897 0h2.45v.816h-2.45V.93zm-4.895 0h2.45v.816h-2.45V.93zM93.8.93h2.45v.816H93.8V.93zm-4.893 0h2.448v.816h-2.448V.93zm-4.896 0h2.448v.816H84.01V.93zm-4.895 0h2.45v.816h-2.45V.93zm-4.895 0h2.447v.816H74.22V.93zm-4.893 0h2.446v.816h-2.446V.93zm-4.896 0h2.448v.816H64.43V.93zm-4.894 0h2.447v.816h-2.447V.93zm-4.894 0h2.447v.816H54.64V.93zm-4.895 0h2.447v.816h-2.447V.93zm-4.895 0H47.3v.816h-2.448V.93zm-4.894 0h2.447v.816h-2.447V.93zm-4.897 0h2.45v.816h-2.45V.93zm-4.893 0h2.447v.816h-2.447V.93zm-4.897 0h2.45v.816h-2.45V.93zm-4.894 0h2.45v.816h-2.45V.93zm-4.895 0h2.45v.816h-2.45V.93zm-4.892 0h2.448v.816h-2.448V.93zm-4.896 0h2.45v.816H5.69V.93zM.797.93h2.448v.816H.797V.93z" id="Fill-5"/></g><g><path d="M17.192 133.313h-34.227l4.527 22.83 31.628-13.097-1.928-9.733zm26.833-45.455L19.82 112.064l19.343 12.95 13.102-31.63-8.24-5.526zm-7.07-9.788L5.323 91.172l12.95 19.345L42.474 86.31l-5.52-8.24z" id="Fill-1" fill="#fff"/><path d="M49.208 163.14v34.23l22.837-4.522-13.102-31.636-9.735 1.928zm-8.02-37.292l22.83 4.523V96.14l-9.727-1.928-13.102 31.636zm52.09-47.78l-5.522 8.244 24.204 24.204 12.95-19.344-31.632-13.105zm-15.312 15.31l13.105 31.636 19.342-12.95L86.207 87.86l-8.24 5.52z" id="Fill-2" fill="#2D3E50"/><path d="M77.11 143.044l31.632 13.098 4.523-22.83H79.04l-1.93 9.732zm18.93-78.92h34.225l-4.524-22.832-31.63 13.103 1.93 9.73zM91.07 5.42L77.966 37.057l8.242 5.52 24.204-24.205L91.07 5.42zm20.89 14.5L87.756 44.124l5.52 8.242L124.91 39.27l-12.95-19.35z" id="Fill-3" fill="#E64C66"/><path d="M-11.678 106.27l31.634 13.095 5.52-8.238L1.27 86.922l-12.948 19.348zM83.208-66.932v34.228l9.734 1.923 13.1-31.627L66.21.068zM-.035 64.125H34.19l1.93-9.73L4.492 41.293-.035 64.125zm19.854-45.75L44.022 42.58l8.242-5.523L39.162 5.42 19.82 18.375zM54.29 36.22l9.73-1.924V.068L41.185 4.593 54.29 36.22z" id="Fill-4" fill="#F6A623"/><path d="M35.806 131.096h24.417v2.22H35.806v-2.22z" id="Fill-5" fill="#494942"/><path d="M46.904 119.996h2.22v24.417h-2.22v-24.417z" id="Fill-6" fill="#494942"/></g><g fill="#fff"><path d="M175.482 62.605l-8.165-14.496L114.7 34.98l-21.67 86.862 63.725 15.898 18.727-75.137zM-51.357-34.28l-15.94 63.886L-8.9 66.984 9.66-7.41 50.982 2.9l-2.62 10.5 9.932 2.486z"/><path d="M116.613 64.81l30.79 7.68-1.137 4.555-30.79-7.68 1.137-4.555z"/><path d="M156.71 79.175l-2.285-3.804 1.496-.898 1.387 2.31 4.61-2.77.14-.565-9.64-2.405-2.404 9.64 9.64 2.405 1.667-6.68-4.61 2.768"/><path d="M113.05 79.087l30.79 7.68-1.137 4.556-30.788-7.68 1.136-4.556z"/><path d="M146.45 94.96l9.64 2.404 2.405-9.64-9.64-2.405-2.404 9.64z"/><path d="M109.358 93.89l30.79 7.682-1.138 4.554-30.788-7.682 1.136-4.554z"/><path d="M145.162 100.122l9.64 2.405-2.405 9.64-9.64-2.405 2.405-9.64z"/></g></g></svg>