<?xml version="1.0" encoding="UTF-8" standalone="no"?>
<svg width="1064px" height="178px" viewBox="0 0 1064 178" version="1.1" xmlns="http://www.w3.org/2000/svg" xmlns:xlink="http://www.w3.org/1999/xlink" xmlns:sketch="http://www.bohemiancoding.com/sketch/ns">
    <!-- Generator: Sketch 3.0.3 (7891) - http://www.bohemiancoding.com/sketch -->
    <title>bg</title>
    <desc>Created with Sketch.</desc>
    <defs></defs>
    <g id="Page-1" stroke="none" stroke-width="1" fill="none" fill-rule="evenodd" sketch:type="MSPage">
        <rect id="Rectangle-8" fill-opacity="0.889999926" fill="#42A898" sketch:type="MSShapeGroup" x="0" y="0" width="1064" height="178"></rect>
        <g id="Oval-16-+-Line-+-Line-2" sketch:type="MSLayerGroup" transform="translate(977.884194, 63.884194) rotate(-12.000000) translate(-977.884194, -63.884194) translate(940.884194, 26.884194)" stroke="#FFFFFF" stroke-width="6">
            <ellipse id="Oval-16" sketch:type="MSShapeGroup" cx="37" cy="36.8477366" rx="37" ry="36.8477366"></ellipse>
            <path d="M37.3057851,1.218107 L37.3057851,73.8533545" id="Line" stroke-linecap="square" sketch:type="MSShapeGroup"></path>
            <path d="M37.1528926,36.0864198 L4.28099174,53.5967078" id="Line" stroke-linecap="square" sketch:type="MSShapeGroup"></path>
        </g>
        <g id="Imported-Layers-8" sketch:type="MSLayerGroup" transform="translate(741.000000, 52.000000)">
            <path d="M0.066054257,127.722105 L65.4723505,14.0193684 L110.153337,109.778526 L193.067157,69.0829474 L249.263602,110.209684 L275.002745,52.864 L321.640196,113.010526 L341.349528,87.6867368 L363.729339,127.722105 L0.066054257,127.722105" id="Fill-1" fill="#E64C66" sketch:type="MSShapeGroup"></path>
            <path d="M66.3908192,127.722105 L119.828713,0.269473684 L164.04732,127.722105 L66.3908192,127.722105" id="Fill-2" fill="#FFFFFF" sketch:type="MSShapeGroup"></path>
            <path d="M215.179606,127.722105 L244.130243,37.3894737 L275.660142,120.397474 L313.292196,0.269473684 L345.08002,127.722105 L215.179606,127.722105" id="Fill-3" fill="#2D3E50" sketch:type="MSShapeGroup"></path>
        </g>
        <g id="Imported-Layers-7" sketch:type="MSLayerGroup" transform="translate(797.000000, 46.000000)" fill="#FFFFFF">
            <path d="M250.440292,118.807108 L252.887591,118.807108 L252.887591,119.624323 L250.440292,119.624323 L250.440292,118.807108 Z M245.545693,118.807108 L247.992993,118.807108 L247.992993,119.624323 L245.545693,119.624323 L245.545693,118.807108 Z M240.649241,118.807108 L243.098394,118.807108 L243.098394,119.624323 L240.649241,119.624323 L240.649241,118.807108 Z M235.752788,118.807108 L238.201942,118.807108 L238.201942,119.624323 L235.752788,119.624323 L235.752788,118.807108 Z M230.860044,118.807108 L233.309197,118.807108 L233.309197,119.624323 L230.860044,119.624323 L230.860044,118.807108 Z M225.965445,118.807108 L228.412745,118.807108 L228.412745,119.624323 L225.965445,119.624323 L225.965445,118.807108 Z M221.070847,118.807108 L223.518146,118.807108 L223.518146,119.624323 L221.070847,119.624323 L221.070847,118.807108 Z M216.174394,118.807108 L218.621693,118.807108 L218.621693,119.624323 L216.174394,119.624323 L216.174394,118.807108 Z M211.279796,118.807108 L213.727095,118.807108 L213.727095,119.624323 L211.279796,119.624323 L211.279796,118.807108 Z M206.385197,118.807108 L208.832496,118.807108 L208.832496,119.624323 L206.385197,119.624323 L206.385197,118.807108 Z M201.490599,118.807108 L203.937898,118.807108 L203.937898,119.624323 L201.490599,119.624323 L201.490599,118.807108 Z M196.594146,118.807108 L199.041445,118.807108 L199.041445,119.624323 L196.594146,119.624323 L196.594146,118.807108 Z M191.699547,118.807108 L194.146847,118.807108 L194.146847,119.624323 L191.699547,119.624323 L191.699547,118.807108 Z M186.804949,118.807108 L189.252248,118.807108 L189.252248,119.624323 L186.804949,119.624323 L186.804949,118.807108 Z M181.91035,118.807108 L184.35765,118.807108 L184.35765,119.624323 L181.91035,119.624323 L181.91035,118.807108 Z M177.015752,118.807108 L179.463051,118.807108 L179.463051,119.624323 L177.015752,119.624323 L177.015752,118.807108 Z M172.121153,118.807108 L174.568453,118.807108 L174.568453,119.624323 L172.121153,119.624323 L172.121153,118.807108 Z M167.226555,118.807108 L169.673854,118.807108 L169.673854,119.624323 L167.226555,119.624323 L167.226555,118.807108 Z M162.331956,118.807108 L164.779255,118.807108 L164.779255,119.624323 L162.331956,119.624323 L162.331956,118.807108 Z M157.435504,118.807108 L159.882803,118.807108 L159.882803,119.624323 L157.435504,119.624323 L157.435504,118.807108 Z M152.539051,118.807108 L154.988204,118.807108 L154.988204,119.624323 L152.539051,119.624323 L152.539051,118.807108 Z M147.646307,118.807108 L150.091752,118.807108 L150.091752,119.624323 L147.646307,119.624323 L147.646307,118.807108 Z M142.751708,118.807108 L145.199007,118.807108 L145.199007,119.624323 L142.751708,119.624323 L142.751708,118.807108 Z M137.855255,118.807108 L140.302555,118.807108 L140.302555,119.624323 L137.855255,119.624323 L137.855255,118.807108 Z M132.960657,118.807108 L135.407956,118.807108 L135.407956,119.624323 L132.960657,119.624323 L132.960657,118.807108 Z M128.067912,118.807108 L130.513358,118.807108 L130.513358,119.624323 L128.067912,119.624323 L128.067912,118.807108 Z M123.17146,118.807108 L125.618759,118.807108 L125.618759,119.624323 L123.17146,119.624323 L123.17146,118.807108 Z M118.276861,118.807108 L120.724161,118.807108 L120.724161,119.624323 L118.276861,119.624323 L118.276861,118.807108 Z M113.380409,118.807108 L115.827708,118.807108 L115.827708,119.624323 L113.380409,119.624323 L113.380409,118.807108 Z M108.48581,118.807108 L110.933109,118.807108 L110.933109,119.624323 L108.48581,119.624323 L108.48581,118.807108 Z M103.589358,118.807108 L106.038511,118.807108 L106.038511,119.624323 L103.589358,119.624323 L103.589358,118.807108 Z M98.6947591,118.807108 L101.143912,118.807108 L101.143912,119.624323 L98.6947591,119.624323 L98.6947591,118.807108 Z M93.8001606,118.807108 L96.2493139,118.807108 L96.2493139,119.624323 L93.8001606,119.624323 L93.8001606,118.807108 Z M88.9074161,118.807108 L91.3547153,118.807108 L91.3547153,119.624323 L88.9074161,119.624323 L88.9074161,118.807108 Z M84.0109635,118.807108 L86.4582628,118.807108 L86.4582628,119.624323 L84.0109635,119.624323 L84.0109635,118.807108 Z M79.1145109,118.807108 L81.5636642,118.807108 L81.5636642,119.624323 L79.1145109,119.624323 L79.1145109,118.807108 Z M74.2199124,118.807108 L76.6672117,118.807108 L76.6672117,119.624323 L74.2199124,119.624323 L74.2199124,118.807108 Z M69.3271679,118.807108 L71.7726131,118.807108 L71.7726131,119.624323 L69.3271679,119.624323 L69.3271679,118.807108 Z M64.4307153,118.807108 L66.8780146,118.807108 L66.8780146,119.624323 L64.4307153,119.624323 L64.4307153,118.807108 Z M59.5361168,118.807108 L61.9834161,118.807108 L61.9834161,119.624323 L59.5361168,119.624323 L59.5361168,118.807108 Z M54.6415182,118.807108 L57.0888175,118.807108 L57.0888175,119.624323 L54.6415182,119.624323 L54.6415182,118.807108 Z M49.7469197,118.807108 L52.194219,118.807108 L52.194219,119.624323 L49.7469197,119.624323 L49.7469197,118.807108 Z M44.8523212,118.807108 L47.2996204,118.807108 L47.2996204,119.624323 L44.8523212,119.624323 L44.8523212,118.807108 Z M39.9577226,118.807108 L42.4050219,118.807108 L42.4050219,119.624323 L39.9577226,119.624323 L39.9577226,118.807108 Z M35.0612701,118.807108 L37.5085693,118.807108 L37.5085693,119.624323 L35.0612701,119.624323 L35.0612701,118.807108 Z M30.1666715,118.807108 L32.6139708,118.807108 L32.6139708,119.624323 L30.1666715,119.624323 L30.1666715,118.807108 Z M25.270219,118.807108 L27.7193723,118.807108 L27.7193723,119.624323 L25.270219,119.624323 L25.270219,118.807108 Z M20.3756204,118.807108 L22.8247737,118.807108 L22.8247737,119.624323 L20.3756204,119.624323 L20.3756204,118.807108 Z M15.4810219,118.807108 L17.9301752,118.807108 L17.9301752,119.624323 L15.4810219,119.624323 L15.4810219,118.807108 Z M10.5882774,118.807108 L13.0355766,118.807108 L13.0355766,119.624323 L10.5882774,119.624323 L10.5882774,118.807108 Z M5.69182482,118.807108 L8.1409781,118.807108 L8.1409781,119.624323 L5.69182482,119.624323 L5.69182482,118.807108 Z M0.797226277,118.807108 L3.24452555,118.807108 L3.24452555,119.624323 L0.797226277,119.624323 L0.797226277,118.807108 Z" id="Fill-1" sketch:type="MSShapeGroup"></path>
            <path d="M250.440292,89.3352308 L252.887591,89.3352308 L252.887591,90.1543077 L250.440292,90.1543077 L250.440292,89.3352308 Z M245.545693,89.3352308 L247.992993,89.3352308 L247.992993,90.1543077 L245.545693,90.1543077 L245.545693,89.3352308 Z M240.649241,89.3352308 L243.098394,89.3352308 L243.098394,90.1543077 L240.649241,90.1543077 L240.649241,89.3352308 Z M235.752788,89.3352308 L238.201942,89.3352308 L238.201942,90.1543077 L235.752788,90.1543077 L235.752788,89.3352308 Z M230.860044,89.3352308 L233.309197,89.3352308 L233.309197,90.1543077 L230.860044,90.1543077 L230.860044,89.3352308 Z M225.965445,89.3352308 L228.412745,89.3352308 L228.412745,90.1543077 L225.965445,90.1543077 L225.965445,89.3352308 Z M221.070847,89.3352308 L223.518146,89.3352308 L223.518146,90.1543077 L221.070847,90.1543077 L221.070847,89.3352308 Z M216.174394,89.3352308 L218.621693,89.3352308 L218.621693,90.1543077 L216.174394,90.1543077 L216.174394,89.3352308 Z M211.279796,89.3352308 L213.727095,89.3352308 L213.727095,90.1543077 L211.279796,90.1543077 L211.279796,89.3352308 Z M206.385197,89.3352308 L208.832496,89.3352308 L208.832496,90.1543077 L206.385197,90.1543077 L206.385197,89.3352308 Z M201.490599,89.3352308 L203.937898,89.3352308 L203.937898,90.1543077 L201.490599,90.1543077 L201.490599,89.3352308 Z M196.594146,89.3352308 L199.041445,89.3352308 L199.041445,90.1543077 L196.594146,90.1543077 L196.594146,89.3352308 Z M191.699547,89.3352308 L194.146847,89.3352308 L194.146847,90.1543077 L191.699547,90.1543077 L191.699547,89.3352308 Z M186.804949,89.3352308 L189.252248,89.3352308 L189.252248,90.1543077 L186.804949,90.1543077 L186.804949,89.3352308 Z M181.91035,89.3352308 L184.35765,89.3352308 L184.35765,90.1543077 L181.91035,90.1543077 L181.91035,89.3352308 Z M177.015752,89.3352308 L179.463051,89.3352308 L179.463051,90.1543077 L177.015752,90.1543077 L177.015752,89.3352308 Z M172.121153,89.3352308 L174.568453,89.3352308 L174.568453,90.1543077 L172.121153,90.1543077 L172.121153,89.3352308 Z M167.226555,89.3352308 L169.673854,89.3352308 L169.673854,90.1543077 L167.226555,90.1543077 L167.226555,89.3352308 Z M162.331956,89.3352308 L164.779255,89.3352308 L164.779255,90.1543077 L162.331956,90.1543077 L162.331956,89.3352308 Z M157.435504,89.3352308 L159.882803,89.3352308 L159.882803,90.1543077 L157.435504,90.1543077 L157.435504,89.3352308 Z M152.539051,89.3352308 L154.988204,89.3352308 L154.988204,90.1543077 L152.539051,90.1543077 L152.539051,89.3352308 Z M147.646307,89.3352308 L150.091752,89.3352308 L150.091752,90.1543077 L147.646307,90.1543077 L147.646307,89.3352308 Z M142.751708,89.3352308 L145.199007,89.3352308 L145.199007,90.1543077 L142.751708,90.1543077 L142.751708,89.3352308 Z M137.855255,89.3352308 L140.302555,89.3352308 L140.302555,90.1543077 L137.855255,90.1543077 L137.855255,89.3352308 Z M132.960657,89.3352308 L135.407956,89.3352308 L135.407956,90.1543077 L132.960657,90.1543077 L132.960657,89.3352308 Z M128.067912,89.3352308 L130.513358,89.3352308 L130.513358,90.1543077 L128.067912,90.1543077 L128.067912,89.3352308 Z M123.17146,89.3352308 L125.618759,89.3352308 L125.618759,90.1543077 L123.17146,90.1543077 L123.17146,89.3352308 Z M118.276861,89.3352308 L120.724161,89.3352308 L120.724161,90.1543077 L118.276861,90.1543077 L118.276861,89.3352308 Z M113.380409,89.3352308 L115.827708,89.3352308 L115.827708,90.1543077 L113.380409,90.1543077 L113.380409,89.3352308 Z M108.48581,89.3352308 L110.933109,89.3352308 L110.933109,90.1543077 L108.48581,90.1543077 L108.48581,89.3352308 Z M103.589358,89.3352308 L106.038511,89.3352308 L106.038511,90.1543077 L103.589358,90.1543077 L103.589358,89.3352308 Z M98.6947591,89.3352308 L101.143912,89.3352308 L101.143912,90.1543077 L98.6947591,90.1543077 L98.6947591,89.3352308 Z M93.8001606,89.3352308 L96.2493139,89.3352308 L96.2493139,90.1543077 L93.8001606,90.1543077 L93.8001606,89.3352308 Z M88.9074161,89.3352308 L91.3547153,89.3352308 L91.3547153,90.1543077 L88.9074161,90.1543077 L88.9074161,89.3352308 Z M84.0109635,89.3352308 L86.4582628,89.3352308 L86.4582628,90.1543077 L84.0109635,90.1543077 L84.0109635,89.3352308 Z M79.1145109,89.3352308 L81.5636642,89.3352308 L81.5636642,90.1543077 L79.1145109,90.1543077 L79.1145109,89.3352308 Z M74.2199124,89.3352308 L76.6672117,89.3352308 L76.6672117,90.1543077 L74.2199124,90.1543077 L74.2199124,89.3352308 Z M69.3271679,89.3352308 L71.7726131,89.3352308 L71.7726131,90.1543077 L69.3271679,90.1543077 L69.3271679,89.3352308 Z M64.4307153,89.3352308 L66.8780146,89.3352308 L66.8780146,90.1543077 L64.4307153,90.1543077 L64.4307153,89.3352308 Z M59.5361168,89.3352308 L61.9834161,89.3352308 L61.9834161,90.1543077 L59.5361168,90.1543077 L59.5361168,89.3352308 Z M54.6415182,89.3352308 L57.0888175,89.3352308 L57.0888175,90.1543077 L54.6415182,90.1543077 L54.6415182,89.3352308 Z M49.7469197,89.3352308 L52.194219,89.3352308 L52.194219,90.1543077 L49.7469197,90.1543077 L49.7469197,89.3352308 Z M44.8523212,89.3352308 L47.2996204,89.3352308 L47.2996204,90.1543077 L44.8523212,90.1543077 L44.8523212,89.3352308 Z M39.9577226,89.3352308 L42.4050219,89.3352308 L42.4050219,90.1543077 L39.9577226,90.1543077 L39.9577226,89.3352308 Z M35.0612701,89.3352308 L37.5085693,89.3352308 L37.5085693,90.1543077 L35.0612701,90.1543077 L35.0612701,89.3352308 Z M30.1666715,89.3352308 L32.6139708,89.3352308 L32.6139708,90.1543077 L30.1666715,90.1543077 L30.1666715,89.3352308 Z M25.270219,89.3352308 L27.7193723,89.3352308 L27.7193723,90.1543077 L25.270219,90.1543077 L25.270219,89.3352308 Z M20.3756204,89.3352308 L22.8247737,89.3352308 L22.8247737,90.1543077 L20.3756204,90.1543077 L20.3756204,89.3352308 Z M15.4810219,89.3352308 L17.9301752,89.3352308 L17.9301752,90.1543077 L15.4810219,90.1543077 L15.4810219,89.3352308 Z M10.5882774,89.3352308 L13.0355766,89.3352308 L13.0355766,90.1543077 L10.5882774,90.1543077 L10.5882774,89.3352308 Z M5.69182482,89.3352308 L8.1409781,89.3352308 L8.1409781,90.1543077 L5.69182482,90.1543077 L5.69182482,89.3352308 Z M0.797226277,89.3352308 L3.24452555,89.3352308 L3.24452555,90.1543077 L0.797226277,90.1543077 L0.797226277,89.3352308 Z" id="Fill-2" sketch:type="MSShapeGroup"></path>
            <path d="M250.440292,59.8670769 L252.887591,59.8670769 L252.887591,60.6842923 L250.440292,60.6842923 L250.440292,59.8670769 Z M245.545693,59.8670769 L247.992993,59.8670769 L247.992993,60.6842923 L245.545693,60.6842923 L245.545693,59.8670769 Z M240.649241,59.8670769 L243.098394,59.8670769 L243.098394,60.6842923 L240.649241,60.6842923 L240.649241,59.8670769 Z M235.752788,59.8670769 L238.201942,59.8670769 L238.201942,60.6842923 L235.752788,60.6842923 L235.752788,59.8670769 Z M230.860044,59.8670769 L233.309197,59.8670769 L233.309197,60.6842923 L230.860044,60.6842923 L230.860044,59.8670769 Z M225.965445,59.8670769 L228.412745,59.8670769 L228.412745,60.6842923 L225.965445,60.6842923 L225.965445,59.8670769 Z M221.070847,59.8670769 L223.518146,59.8670769 L223.518146,60.6842923 L221.070847,60.6842923 L221.070847,59.8670769 Z M216.174394,59.8670769 L218.621693,59.8670769 L218.621693,60.6842923 L216.174394,60.6842923 L216.174394,59.8670769 Z M211.279796,59.8670769 L213.727095,59.8670769 L213.727095,60.6842923 L211.279796,60.6842923 L211.279796,59.8670769 Z M206.385197,59.8670769 L208.832496,59.8670769 L208.832496,60.6842923 L206.385197,60.6842923 L206.385197,59.8670769 Z M201.490599,59.8670769 L203.937898,59.8670769 L203.937898,60.6842923 L201.490599,60.6842923 L201.490599,59.8670769 Z M196.594146,59.8670769 L199.041445,59.8670769 L199.041445,60.6842923 L196.594146,60.6842923 L196.594146,59.8670769 Z M191.699547,59.8670769 L194.146847,59.8670769 L194.146847,60.6842923 L191.699547,60.6842923 L191.699547,59.8670769 Z M186.804949,59.8670769 L189.252248,59.8670769 L189.252248,60.6842923 L186.804949,60.6842923 L186.804949,59.8670769 Z M181.91035,59.8670769 L184.35765,59.8670769 L184.35765,60.6842923 L181.91035,60.6842923 L181.91035,59.8670769 Z M177.015752,59.8670769 L179.463051,59.8670769 L179.463051,60.6842923 L177.015752,60.6842923 L177.015752,59.8670769 Z M172.121153,59.8670769 L174.568453,59.8670769 L174.568453,60.6842923 L172.121153,60.6842923 L172.121153,59.8670769 Z M167.226555,59.8670769 L169.673854,59.8670769 L169.673854,60.6842923 L167.226555,60.6842923 L167.226555,59.8670769 Z M162.331956,59.8670769 L164.779255,59.8670769 L164.779255,60.6842923 L162.331956,60.6842923 L162.331956,59.8670769 Z M157.435504,59.8670769 L159.882803,59.8670769 L159.882803,60.6842923 L157.435504,60.6842923 L157.435504,59.8670769 Z M152.539051,59.8670769 L154.988204,59.8670769 L154.988204,60.6842923 L152.539051,60.6842923 L152.539051,59.8670769 Z M147.646307,59.8670769 L150.091752,59.8670769 L150.091752,60.6842923 L147.646307,60.6842923 L147.646307,59.8670769 Z M142.751708,59.8670769 L145.199007,59.8670769 L145.199007,60.6842923 L142.751708,60.6842923 L142.751708,59.8670769 Z M137.855255,59.8670769 L140.302555,59.8670769 L140.302555,60.6842923 L137.855255,60.6842923 L137.855255,59.8670769 Z M132.960657,59.8670769 L135.407956,59.8670769 L135.407956,60.6842923 L132.960657,60.6842923 L132.960657,59.8670769 Z M128.067912,59.8670769 L130.513358,59.8670769 L130.513358,60.6842923 L128.067912,60.6842923 L128.067912,59.8670769 Z M123.17146,59.8670769 L125.618759,59.8670769 L125.618759,60.6842923 L123.17146,60.6842923 L123.17146,59.8670769 Z M118.276861,59.8670769 L120.724161,59.8670769 L120.724161,60.6842923 L118.276861,60.6842923 L118.276861,59.8670769 Z M113.380409,59.8670769 L115.827708,59.8670769 L115.827708,60.6842923 L113.380409,60.6842923 L113.380409,59.8670769 Z M108.48581,59.8670769 L110.933109,59.8670769 L110.933109,60.6842923 L108.48581,60.6842923 L108.48581,59.8670769 Z M103.589358,59.8670769 L106.038511,59.8670769 L106.038511,60.6842923 L103.589358,60.6842923 L103.589358,59.8670769 Z M98.6947591,59.8670769 L101.143912,59.8670769 L101.143912,60.6842923 L98.6947591,60.6842923 L98.6947591,59.8670769 Z M93.8001606,59.8670769 L96.2493139,59.8670769 L96.2493139,60.6842923 L93.8001606,60.6842923 L93.8001606,59.8670769 Z M88.9074161,59.8670769 L91.3547153,59.8670769 L91.3547153,60.6842923 L88.9074161,60.6842923 L88.9074161,59.8670769 Z M84.0109635,59.8670769 L86.4582628,59.8670769 L86.4582628,60.6842923 L84.0109635,60.6842923 L84.0109635,59.8670769 Z M79.1145109,59.8670769 L81.5636642,59.8670769 L81.5636642,60.6842923 L79.1145109,60.6842923 L79.1145109,59.8670769 Z M74.2199124,59.8670769 L76.6672117,59.8670769 L76.6672117,60.6842923 L74.2199124,60.6842923 L74.2199124,59.8670769 Z M69.3271679,59.8670769 L71.7726131,59.8670769 L71.7726131,60.6842923 L69.3271679,60.6842923 L69.3271679,59.8670769 Z M64.4307153,59.8670769 L66.8780146,59.8670769 L66.8780146,60.6842923 L64.4307153,60.6842923 L64.4307153,59.8670769 Z M59.5361168,59.8670769 L61.9834161,59.8670769 L61.9834161,60.6842923 L59.5361168,60.6842923 L59.5361168,59.8670769 Z M54.6415182,59.8670769 L57.0888175,59.8670769 L57.0888175,60.6842923 L54.6415182,60.6842923 L54.6415182,59.8670769 Z M49.7469197,59.8670769 L52.194219,59.8670769 L52.194219,60.6842923 L49.7469197,60.6842923 L49.7469197,59.8670769 Z M44.8523212,59.8670769 L47.2996204,59.8670769 L47.2996204,60.6842923 L44.8523212,60.6842923 L44.8523212,59.8670769 Z M39.9577226,59.8670769 L42.4050219,59.8670769 L42.4050219,60.6842923 L39.9577226,60.6842923 L39.9577226,59.8670769 Z M35.0612701,59.8670769 L37.5085693,59.8670769 L37.5085693,60.6842923 L35.0612701,60.6842923 L35.0612701,59.8670769 Z M30.1666715,59.8670769 L32.6139708,59.8670769 L32.6139708,60.6842923 L30.1666715,60.6842923 L30.1666715,59.8670769 Z M25.270219,59.8670769 L27.7193723,59.8670769 L27.7193723,60.6842923 L25.270219,60.6842923 L25.270219,59.8670769 Z M20.3756204,59.8670769 L22.8247737,59.8670769 L22.8247737,60.6842923 L20.3756204,60.6842923 L20.3756204,59.8670769 Z M15.4810219,59.8670769 L17.9301752,59.8670769 L17.9301752,60.6842923 L15.4810219,60.6842923 L15.4810219,59.8670769 Z M10.5882774,59.8670769 L13.0355766,59.8670769 L13.0355766,60.6842923 L10.5882774,60.6842923 L10.5882774,59.8670769 Z M5.69182482,59.8670769 L8.1409781,59.8670769 L8.1409781,60.6842923 L5.69182482,60.6842923 L5.69182482,59.8670769 Z M0.797226277,59.8670769 L3.24452555,59.8670769 L3.24452555,60.6842923 L0.797226277,60.6842923 L0.797226277,59.8670769 Z" id="Fill-3" sketch:type="MSShapeGroup"></path>
            <path d="M250.440292,30.3970615 L252.887591,30.3970615 L252.887591,31.2142769 L250.440292,31.2142769 L250.440292,30.3970615 Z M245.545693,30.3970615 L247.992993,30.3970615 L247.992993,31.2142769 L245.545693,31.2142769 L245.545693,30.3970615 Z M240.649241,30.3970615 L243.098394,30.3970615 L243.098394,31.2142769 L240.649241,31.2142769 L240.649241,30.3970615 Z M235.752788,30.3970615 L238.201942,30.3970615 L238.201942,31.2142769 L235.752788,31.2142769 L235.752788,30.3970615 Z M230.860044,30.3970615 L233.309197,30.3970615 L233.309197,31.2142769 L230.860044,31.2142769 L230.860044,30.3970615 Z M225.965445,30.3970615 L228.412745,30.3970615 L228.412745,31.2142769 L225.965445,31.2142769 L225.965445,30.3970615 Z M221.070847,30.3970615 L223.518146,30.3970615 L223.518146,31.2142769 L221.070847,31.2142769 L221.070847,30.3970615 Z M216.174394,30.3970615 L218.621693,30.3970615 L218.621693,31.2142769 L216.174394,31.2142769 L216.174394,30.3970615 Z M211.279796,30.3970615 L213.727095,30.3970615 L213.727095,31.2142769 L211.279796,31.2142769 L211.279796,30.3970615 Z M206.385197,30.3970615 L208.832496,30.3970615 L208.832496,31.2142769 L206.385197,31.2142769 L206.385197,30.3970615 Z M201.490599,30.3970615 L203.937898,30.3970615 L203.937898,31.2142769 L201.490599,31.2142769 L201.490599,30.3970615 Z M196.594146,30.3970615 L199.041445,30.3970615 L199.041445,31.2142769 L196.594146,31.2142769 L196.594146,30.3970615 Z M191.699547,30.3970615 L194.146847,30.3970615 L194.146847,31.2142769 L191.699547,31.2142769 L191.699547,30.3970615 Z M186.804949,30.3970615 L189.252248,30.3970615 L189.252248,31.2142769 L186.804949,31.2142769 L186.804949,30.3970615 Z M181.91035,30.3970615 L184.35765,30.3970615 L184.35765,31.2142769 L181.91035,31.2142769 L181.91035,30.3970615 Z M177.015752,30.3970615 L179.463051,30.3970615 L179.463051,31.2142769 L177.015752,31.2142769 L177.015752,30.3970615 Z M172.121153,30.3970615 L174.568453,30.3970615 L174.568453,31.2142769 L172.121153,31.2142769 L172.121153,30.3970615 Z M167.226555,30.3970615 L169.673854,30.3970615 L169.673854,31.2142769 L167.226555,31.2142769 L167.226555,30.3970615 Z M162.331956,30.3970615 L164.779255,30.3970615 L164.779255,31.2142769 L162.331956,31.2142769 L162.331956,30.3970615 Z M157.435504,30.3970615 L159.882803,30.3970615 L159.882803,31.2142769 L157.435504,31.2142769 L157.435504,30.3970615 Z M152.539051,30.3970615 L154.988204,30.3970615 L154.988204,31.2142769 L152.539051,31.2142769 L152.539051,30.3970615 Z M147.646307,30.3970615 L150.091752,30.3970615 L150.091752,31.2142769 L147.646307,31.2142769 L147.646307,30.3970615 Z M142.751708,30.3970615 L145.199007,30.3970615 L145.199007,31.2142769 L142.751708,31.2142769 L142.751708,30.3970615 Z M137.855255,30.3970615 L140.302555,30.3970615 L140.302555,31.2142769 L137.855255,31.2142769 L137.855255,30.3970615 Z M132.960657,30.3970615 L135.407956,30.3970615 L135.407956,31.2142769 L132.960657,31.2142769 L132.960657,30.3970615 Z M128.067912,30.3970615 L130.513358,30.3970615 L130.513358,31.2142769 L128.067912,31.2142769 L128.067912,30.3970615 Z M123.17146,30.3970615 L125.618759,30.3970615 L125.618759,31.2142769 L123.17146,31.2142769 L123.17146,30.3970615 Z M118.276861,30.3970615 L120.724161,30.3970615 L120.724161,31.2142769 L118.276861,31.2142769 L118.276861,30.3970615 Z M113.380409,30.3970615 L115.827708,30.3970615 L115.827708,31.2142769 L113.380409,31.2142769 L113.380409,30.3970615 Z M108.48581,30.3970615 L110.933109,30.3970615 L110.933109,31.2142769 L108.48581,31.2142769 L108.48581,30.3970615 Z M103.589358,30.3970615 L106.038511,30.3970615 L106.038511,31.2142769 L103.589358,31.2142769 L103.589358,30.3970615 Z M98.6947591,30.3970615 L101.143912,30.3970615 L101.143912,31.2142769 L98.6947591,31.2142769 L98.6947591,30.3970615 Z M93.8001606,30.3970615 L96.2493139,30.3970615 L96.2493139,31.2142769 L93.8001606,31.2142769 L93.8001606,30.3970615 Z M88.9074161,30.3970615 L91.3547153,30.3970615 L91.3547153,31.2142769 L88.9074161,31.2142769 L88.9074161,30.3970615 Z M84.0109635,30.3970615 L86.4582628,30.3970615 L86.4582628,31.2142769 L84.0109635,31.2142769 L84.0109635,30.3970615 Z M79.1145109,30.3970615 L81.5636642,30.3970615 L81.5636642,31.2142769 L79.1145109,31.2142769 L79.1145109,30.3970615 Z M74.2199124,30.3970615 L76.6672117,30.3970615 L76.6672117,31.2142769 L74.2199124,31.2142769 L74.2199124,30.3970615 Z M69.3271679,30.3970615 L71.7726131,30.3970615 L71.7726131,31.2142769 L69.3271679,31.2142769 L69.3271679,30.3970615 Z M64.4307153,30.3970615 L66.8780146,30.3970615 L66.8780146,31.2142769 L64.4307153,31.2142769 L64.4307153,30.3970615 Z M59.5361168,30.3970615 L61.9834161,30.3970615 L61.9834161,31.2142769 L59.5361168,31.2142769 L59.5361168,30.3970615 Z M54.6415182,30.3970615 L57.0888175,30.3970615 L57.0888175,31.2142769 L54.6415182,31.2142769 L54.6415182,30.3970615 Z M49.7469197,30.3970615 L52.194219,30.3970615 L52.194219,31.2142769 L49.7469197,31.2142769 L49.7469197,30.3970615 Z M44.8523212,30.3970615 L47.2996204,30.3970615 L47.2996204,31.2142769 L44.8523212,31.2142769 L44.8523212,30.3970615 Z M39.9577226,30.3970615 L42.4050219,30.3970615 L42.4050219,31.2142769 L39.9577226,31.2142769 L39.9577226,30.3970615 Z M35.0612701,30.3970615 L37.5085693,30.3970615 L37.5085693,31.2142769 L35.0612701,31.2142769 L35.0612701,30.3970615 Z M30.1666715,30.3970615 L32.6139708,30.3970615 L32.6139708,31.2142769 L30.1666715,31.2142769 L30.1666715,30.3970615 Z M25.270219,30.3970615 L27.7193723,30.3970615 L27.7193723,31.2142769 L25.270219,31.2142769 L25.270219,30.3970615 Z M20.3756204,30.3970615 L22.8247737,30.3970615 L22.8247737,31.2142769 L20.3756204,31.2142769 L20.3756204,30.3970615 Z M15.4810219,30.3970615 L17.9301752,30.3970615 L17.9301752,31.2142769 L15.4810219,31.2142769 L15.4810219,30.3970615 Z M10.5882774,30.3970615 L13.0355766,30.3970615 L13.0355766,31.2142769 L10.5882774,31.2142769 L10.5882774,30.3970615 Z M5.69182482,30.3970615 L8.1409781,30.3970615 L8.1409781,31.2142769 L5.69182482,31.2142769 L5.69182482,30.3970615 Z M0.797226277,30.3970615 L3.24452555,30.3970615 L3.24452555,31.2142769 L0.797226277,31.2142769 L0.797226277,30.3970615 Z" id="Fill-4" sketch:type="MSShapeGroup"></path>
            <path d="M250.440292,0.928907692 L252.887591,0.928907692 L252.887591,1.74612308 L250.440292,1.74612308 L250.440292,0.928907692 Z M245.545693,0.928907692 L247.992993,0.928907692 L247.992993,1.74612308 L245.545693,1.74612308 L245.545693,0.928907692 Z M240.649241,0.928907692 L243.098394,0.928907692 L243.098394,1.74612308 L240.649241,1.74612308 L240.649241,0.928907692 Z M235.752788,0.928907692 L238.201942,0.928907692 L238.201942,1.74612308 L235.752788,1.74612308 L235.752788,0.928907692 Z M230.860044,0.928907692 L233.309197,0.928907692 L233.309197,1.74612308 L230.860044,1.74612308 L230.860044,0.928907692 Z M225.965445,0.928907692 L228.412745,0.928907692 L228.412745,1.74612308 L225.965445,1.74612308 L225.965445,0.928907692 Z M221.070847,0.928907692 L223.518146,0.928907692 L223.518146,1.74612308 L221.070847,1.74612308 L221.070847,0.928907692 Z M216.174394,0.928907692 L218.621693,0.928907692 L218.621693,1.74612308 L216.174394,1.74612308 L216.174394,0.928907692 Z M211.279796,0.928907692 L213.727095,0.928907692 L213.727095,1.74612308 L211.279796,1.74612308 L211.279796,0.928907692 Z M206.385197,0.928907692 L208.832496,0.928907692 L208.832496,1.74612308 L206.385197,1.74612308 L206.385197,0.928907692 Z M201.490599,0.928907692 L203.937898,0.928907692 L203.937898,1.74612308 L201.490599,1.74612308 L201.490599,0.928907692 Z M196.594146,0.928907692 L199.041445,0.928907692 L199.041445,1.74612308 L196.594146,1.74612308 L196.594146,0.928907692 Z M191.699547,0.928907692 L194.146847,0.928907692 L194.146847,1.74612308 L191.699547,1.74612308 L191.699547,0.928907692 Z M186.804949,0.928907692 L189.252248,0.928907692 L189.252248,1.74612308 L186.804949,1.74612308 L186.804949,0.928907692 Z M181.91035,0.928907692 L184.35765,0.928907692 L184.35765,1.74612308 L181.91035,1.74612308 L181.91035,0.928907692 Z M177.015752,0.928907692 L179.463051,0.928907692 L179.463051,1.74612308 L177.015752,1.74612308 L177.015752,0.928907692 Z M172.121153,0.928907692 L174.568453,0.928907692 L174.568453,1.74612308 L172.121153,1.74612308 L172.121153,0.928907692 Z M167.226555,0.928907692 L169.673854,0.928907692 L169.673854,1.74612308 L167.226555,1.74612308 L167.226555,0.928907692 Z M162.331956,0.928907692 L164.779255,0.928907692 L164.779255,1.74612308 L162.331956,1.74612308 L162.331956,0.928907692 Z M157.435504,0.928907692 L159.882803,0.928907692 L159.882803,1.74612308 L157.435504,1.74612308 L157.435504,0.928907692 Z M152.539051,0.928907692 L154.988204,0.928907692 L154.988204,1.74612308 L152.539051,1.74612308 L152.539051,0.928907692 Z M147.646307,0.928907692 L150.091752,0.928907692 L150.091752,1.74612308 L147.646307,1.74612308 L147.646307,0.928907692 Z M142.751708,0.928907692 L145.199007,0.928907692 L145.199007,1.74612308 L142.751708,1.74612308 L142.751708,0.928907692 Z M137.855255,0.928907692 L140.302555,0.928907692 L140.302555,1.74612308 L137.855255,1.74612308 L137.855255,0.928907692 Z M132.960657,0.928907692 L135.407956,0.928907692 L135.407956,1.74612308 L132.960657,1.74612308 L132.960657,0.928907692 Z M128.067912,0.928907692 L130.513358,0.928907692 L130.513358,1.74612308 L128.067912,1.74612308 L128.067912,0.928907692 Z M123.17146,0.928907692 L125.618759,0.928907692 L125.618759,1.74612308 L123.17146,1.74612308 L123.17146,0.928907692 Z M118.276861,0.928907692 L120.724161,0.928907692 L120.724161,1.74612308 L118.276861,1.74612308 L118.276861,0.928907692 Z M113.380409,0.928907692 L115.827708,0.928907692 L115.827708,1.74612308 L113.380409,1.74612308 L113.380409,0.928907692 Z M108.48581,0.928907692 L110.933109,0.928907692 L110.933109,1.74612308 L108.48581,1.74612308 L108.48581,0.928907692 Z M103.589358,0.928907692 L106.038511,0.928907692 L106.038511,1.74612308 L103.589358,1.74612308 L103.589358,0.928907692 Z M98.6947591,0.928907692 L101.143912,0.928907692 L101.143912,1.74612308 L98.6947591,1.74612308 L98.6947591,0.928907692 Z M93.8001606,0.928907692 L96.2493139,0.928907692 L96.2493139,1.74612308 L93.8001606,1.74612308 L93.8001606,0.928907692 Z M88.9074161,0.928907692 L91.3547153,0.928907692 L91.3547153,1.74612308 L88.9074161,1.74612308 L88.9074161,0.928907692 Z M84.0109635,0.928907692 L86.4582628,0.928907692 L86.4582628,1.74612308 L84.0109635,1.74612308 L84.0109635,0.928907692 Z M79.1145109,0.928907692 L81.5636642,0.928907692 L81.5636642,1.74612308 L79.1145109,1.74612308 L79.1145109,0.928907692 Z M74.2199124,0.928907692 L76.6672117,0.928907692 L76.6672117,1.74612308 L74.2199124,1.74612308 L74.2199124,0.928907692 Z M69.3271679,0.928907692 L71.7726131,0.928907692 L71.7726131,1.74612308 L69.3271679,1.74612308 L69.3271679,0.928907692 Z M64.4307153,0.928907692 L66.8780146,0.928907692 L66.8780146,1.74612308 L64.4307153,1.74612308 L64.4307153,0.928907692 Z M59.5361168,0.928907692 L61.9834161,0.928907692 L61.9834161,1.74612308 L59.5361168,1.74612308 L59.5361168,0.928907692 Z M54.6415182,0.928907692 L57.0888175,0.928907692 L57.0888175,1.74612308 L54.6415182,1.74612308 L54.6415182,0.928907692 Z M49.7469197,0.928907692 L52.194219,0.928907692 L52.194219,1.74612308 L49.7469197,1.74612308 L49.7469197,0.928907692 Z M44.8523212,0.928907692 L47.2996204,0.928907692 L47.2996204,1.74612308 L44.8523212,1.74612308 L44.8523212,0.928907692 Z M39.9577226,0.928907692 L42.4050219,0.928907692 L42.4050219,1.74612308 L39.9577226,1.74612308 L39.9577226,0.928907692 Z M35.0612701,0.928907692 L37.5085693,0.928907692 L37.5085693,1.74612308 L35.0612701,1.74612308 L35.0612701,0.928907692 Z M30.1666715,0.928907692 L32.6139708,0.928907692 L32.6139708,1.74612308 L30.1666715,1.74612308 L30.1666715,0.928907692 Z M25.270219,0.928907692 L27.7193723,0.928907692 L27.7193723,1.74612308 L25.270219,1.74612308 L25.270219,0.928907692 Z M20.3756204,0.928907692 L22.8247737,0.928907692 L22.8247737,1.74612308 L20.3756204,1.74612308 L20.3756204,0.928907692 Z M15.4810219,0.928907692 L17.9301752,0.928907692 L17.9301752,1.74612308 L15.4810219,1.74612308 L15.4810219,0.928907692 Z M10.5882774,0.928907692 L13.0355766,0.928907692 L13.0355766,1.74612308 L10.5882774,1.74612308 L10.5882774,0.928907692 Z M5.69182482,0.928907692 L8.1409781,0.928907692 L8.1409781,1.74612308 L5.69182482,1.74612308 L5.69182482,0.928907692 Z M0.797226277,0.928907692 L3.24452555,0.928907692 L3.24452555,1.74612308 L0.797226277,1.74612308 L0.797226277,0.928907692 Z" id="Fill-5" sketch:type="MSShapeGroup"></path>
        </g>
        <g id="Imported-Layers-6" sketch:type="MSLayerGroup" transform="translate(24.000000, 43.000000)" fill="#FFFFFF">
            <path d="M250.440292,118.807108 L252.887591,118.807108 L252.887591,119.624323 L250.440292,119.624323 L250.440292,118.807108 Z M245.545693,118.807108 L247.992993,118.807108 L247.992993,119.624323 L245.545693,119.624323 L245.545693,118.807108 Z M240.649241,118.807108 L243.098394,118.807108 L243.098394,119.624323 L240.649241,119.624323 L240.649241,118.807108 Z M235.752788,118.807108 L238.201942,118.807108 L238.201942,119.624323 L235.752788,119.624323 L235.752788,118.807108 Z M230.860044,118.807108 L233.309197,118.807108 L233.309197,119.624323 L230.860044,119.624323 L230.860044,118.807108 Z M225.965445,118.807108 L228.412745,118.807108 L228.412745,119.624323 L225.965445,119.624323 L225.965445,118.807108 Z M221.070847,118.807108 L223.518146,118.807108 L223.518146,119.624323 L221.070847,119.624323 L221.070847,118.807108 Z M216.174394,118.807108 L218.621693,118.807108 L218.621693,119.624323 L216.174394,119.624323 L216.174394,118.807108 Z M211.279796,118.807108 L213.727095,118.807108 L213.727095,119.624323 L211.279796,119.624323 L211.279796,118.807108 Z M206.385197,118.807108 L208.832496,118.807108 L208.832496,119.624323 L206.385197,119.624323 L206.385197,118.807108 Z M201.490599,118.807108 L203.937898,118.807108 L203.937898,119.624323 L201.490599,119.624323 L201.490599,118.807108 Z M196.594146,118.807108 L199.041445,118.807108 L199.041445,119.624323 L196.594146,119.624323 L196.594146,118.807108 Z M191.699547,118.807108 L194.146847,118.807108 L194.146847,119.624323 L191.699547,119.624323 L191.699547,118.807108 Z M186.804949,118.807108 L189.252248,118.807108 L189.252248,119.624323 L186.804949,119.624323 L186.804949,118.807108 Z M181.91035,118.807108 L184.35765,118.807108 L184.35765,119.624323 L181.91035,119.624323 L181.91035,118.807108 Z M177.015752,118.807108 L179.463051,118.807108 L179.463051,119.624323 L177.015752,119.624323 L177.015752,118.807108 Z M172.121153,118.807108 L174.568453,118.807108 L174.568453,119.624323 L172.121153,119.624323 L172.121153,118.807108 Z M167.226555,118.807108 L169.673854,118.807108 L169.673854,119.624323 L167.226555,119.624323 L167.226555,118.807108 Z M162.331956,118.807108 L164.779255,118.807108 L164.779255,119.624323 L162.331956,119.624323 L162.331956,118.807108 Z M157.435504,118.807108 L159.882803,118.807108 L159.882803,119.624323 L157.435504,119.624323 L157.435504,118.807108 Z M152.539051,118.807108 L154.988204,118.807108 L154.988204,119.624323 L152.539051,119.624323 L152.539051,118.807108 Z M147.646307,118.807108 L150.091752,118.807108 L150.091752,119.624323 L147.646307,119.624323 L147.646307,118.807108 Z M142.751708,118.807108 L145.199007,118.807108 L145.199007,119.624323 L142.751708,119.624323 L142.751708,118.807108 Z M137.855255,118.807108 L140.302555,118.807108 L140.302555,119.624323 L137.855255,119.624323 L137.855255,118.807108 Z M132.960657,118.807108 L135.407956,118.807108 L135.407956,119.624323 L132.960657,119.624323 L132.960657,118.807108 Z M128.067912,118.807108 L130.513358,118.807108 L130.513358,119.624323 L128.067912,119.624323 L128.067912,118.807108 Z M123.17146,118.807108 L125.618759,118.807108 L125.618759,119.624323 L123.17146,119.624323 L123.17146,118.807108 Z M118.276861,118.807108 L120.724161,118.807108 L120.724161,119.624323 L118.276861,119.624323 L118.276861,118.807108 Z M113.380409,118.807108 L115.827708,118.807108 L115.827708,119.624323 L113.380409,119.624323 L113.380409,118.807108 Z M108.48581,118.807108 L110.933109,118.807108 L110.933109,119.624323 L108.48581,119.624323 L108.48581,118.807108 Z M103.589358,118.807108 L106.038511,118.807108 L106.038511,119.624323 L103.589358,119.624323 L103.589358,118.807108 Z M98.6947591,118.807108 L101.143912,118.807108 L101.143912,119.624323 L98.6947591,119.624323 L98.6947591,118.807108 Z M93.8001606,118.807108 L96.2493139,118.807108 L96.2493139,119.624323 L93.8001606,119.624323 L93.8001606,118.807108 Z M88.9074161,118.807108 L91.3547153,118.807108 L91.3547153,119.624323 L88.9074161,119.624323 L88.9074161,118.807108 Z M84.0109635,118.807108 L86.4582628,118.807108 L86.4582628,119.624323 L84.0109635,119.624323 L84.0109635,118.807108 Z M79.1145109,118.807108 L81.5636642,118.807108 L81.5636642,119.624323 L79.1145109,119.624323 L79.1145109,118.807108 Z M74.2199124,118.807108 L76.6672117,118.807108 L76.6672117,119.624323 L74.2199124,119.624323 L74.2199124,118.807108 Z M69.3271679,118.807108 L71.7726131,118.807108 L71.7726131,119.624323 L69.3271679,119.624323 L69.3271679,118.807108 Z M64.4307153,118.807108 L66.8780146,118.807108 L66.8780146,119.624323 L64.4307153,119.624323 L64.4307153,118.807108 Z M59.5361168,118.807108 L61.9834161,118.807108 L61.9834161,119.624323 L59.5361168,119.624323 L59.5361168,118.807108 Z M54.6415182,118.807108 L57.0888175,118.807108 L57.0888175,119.624323 L54.6415182,119.624323 L54.6415182,118.807108 Z M49.7469197,118.807108 L52.194219,118.807108 L52.194219,119.624323 L49.7469197,119.624323 L49.7469197,118.807108 Z M44.8523212,118.807108 L47.2996204,118.807108 L47.2996204,119.624323 L44.8523212,119.624323 L44.8523212,118.807108 Z M39.9577226,118.807108 L42.4050219,118.807108 L42.4050219,119.624323 L39.9577226,119.624323 L39.9577226,118.807108 Z M35.0612701,118.807108 L37.5085693,118.807108 L37.5085693,119.624323 L35.0612701,119.624323 L35.0612701,118.807108 Z M30.1666715,118.807108 L32.6139708,118.807108 L32.6139708,119.624323 L30.1666715,119.624323 L30.1666715,118.807108 Z M25.270219,118.807108 L27.7193723,118.807108 L27.7193723,119.624323 L25.270219,119.624323 L25.270219,118.807108 Z M20.3756204,118.807108 L22.8247737,118.807108 L22.8247737,119.624323 L20.3756204,119.624323 L20.3756204,118.807108 Z M15.4810219,118.807108 L17.9301752,118.807108 L17.9301752,119.624323 L15.4810219,119.624323 L15.4810219,118.807108 Z M10.5882774,118.807108 L13.0355766,118.807108 L13.0355766,119.624323 L10.5882774,119.624323 L10.5882774,118.807108 Z M5.69182482,118.807108 L8.1409781,118.807108 L8.1409781,119.624323 L5.69182482,119.624323 L5.69182482,118.807108 Z M0.797226277,118.807108 L3.24452555,118.807108 L3.24452555,119.624323 L0.797226277,119.624323 L0.797226277,118.807108 Z" id="Fill-1" sketch:type="MSShapeGroup"></path>
            <path d="M250.440292,89.3352308 L252.887591,89.3352308 L252.887591,90.1543077 L250.440292,90.1543077 L250.440292,89.3352308 Z M245.545693,89.3352308 L247.992993,89.3352308 L247.992993,90.1543077 L245.545693,90.1543077 L245.545693,89.3352308 Z M240.649241,89.3352308 L243.098394,89.3352308 L243.098394,90.1543077 L240.649241,90.1543077 L240.649241,89.3352308 Z M235.752788,89.3352308 L238.201942,89.3352308 L238.201942,90.1543077 L235.752788,90.1543077 L235.752788,89.3352308 Z M230.860044,89.3352308 L233.309197,89.3352308 L233.309197,90.1543077 L230.860044,90.1543077 L230.860044,89.3352308 Z M225.965445,89.3352308 L228.412745,89.3352308 L228.412745,90.1543077 L225.965445,90.1543077 L225.965445,89.3352308 Z M221.070847,89.3352308 L223.518146,89.3352308 L223.518146,90.1543077 L221.070847,90.1543077 L221.070847,89.3352308 Z M216.174394,89.3352308 L218.621693,89.3352308 L218.621693,90.1543077 L216.174394,90.1543077 L216.174394,89.3352308 Z M211.279796,89.3352308 L213.727095,89.3352308 L213.727095,90.1543077 L211.279796,90.1543077 L211.279796,89.3352308 Z M206.385197,89.3352308 L208.832496,89.3352308 L208.832496,90.1543077 L206.385197,90.1543077 L206.385197,89.3352308 Z M201.490599,89.3352308 L203.937898,89.3352308 L203.937898,90.1543077 L201.490599,90.1543077 L201.490599,89.3352308 Z M196.594146,89.3352308 L199.041445,89.3352308 L199.041445,90.1543077 L196.594146,90.1543077 L196.594146,89.3352308 Z M191.699547,89.3352308 L194.146847,89.3352308 L194.146847,90.1543077 L191.699547,90.1543077 L191.699547,89.3352308 Z M186.804949,89.3352308 L189.252248,89.3352308 L189.252248,90.1543077 L186.804949,90.1543077 L186.804949,89.3352308 Z M181.91035,89.3352308 L184.35765,89.3352308 L184.35765,90.1543077 L181.91035,90.1543077 L181.91035,89.3352308 Z M177.015752,89.3352308 L179.463051,89.3352308 L179.463051,90.1543077 L177.015752,90.1543077 L177.015752,89.3352308 Z M172.121153,89.3352308 L174.568453,89.3352308 L174.568453,90.1543077 L172.121153,90.1543077 L172.121153,89.3352308 Z M167.226555,89.3352308 L169.673854,89.3352308 L169.673854,90.1543077 L167.226555,90.1543077 L167.226555,89.3352308 Z M162.331956,89.3352308 L164.779255,89.3352308 L164.779255,90.1543077 L162.331956,90.1543077 L162.331956,89.3352308 Z M157.435504,89.3352308 L159.882803,89.3352308 L159.882803,90.1543077 L157.435504,90.1543077 L157.435504,89.3352308 Z M152.539051,89.3352308 L154.988204,89.3352308 L154.988204,90.1543077 L152.539051,90.1543077 L152.539051,89.3352308 Z M147.646307,89.3352308 L150.091752,89.3352308 L150.091752,90.1543077 L147.646307,90.1543077 L147.646307,89.3352308 Z M142.751708,89.3352308 L145.199007,89.3352308 L145.199007,90.1543077 L142.751708,90.1543077 L142.751708,89.3352308 Z M137.855255,89.3352308 L140.302555,89.3352308 L140.302555,90.1543077 L137.855255,90.1543077 L137.855255,89.3352308 Z M132.960657,89.3352308 L135.407956,89.3352308 L135.407956,90.1543077 L132.960657,90.1543077 L132.960657,89.3352308 Z M128.067912,89.3352308 L130.513358,89.3352308 L130.513358,90.1543077 L128.067912,90.1543077 L128.067912,89.3352308 Z M123.17146,89.3352308 L125.618759,89.3352308 L125.618759,90.1543077 L123.17146,90.1543077 L123.17146,89.3352308 Z M118.276861,89.3352308 L120.724161,89.3352308 L120.724161,90.1543077 L118.276861,90.1543077 L118.276861,89.3352308 Z M113.380409,89.3352308 L115.827708,89.3352308 L115.827708,90.1543077 L113.380409,90.1543077 L113.380409,89.3352308 Z M108.48581,89.3352308 L110.933109,89.3352308 L110.933109,90.1543077 L108.48581,90.1543077 L108.48581,89.3352308 Z M103.589358,89.3352308 L106.038511,89.3352308 L106.038511,90.1543077 L103.589358,90.1543077 L103.589358,89.3352308 Z M98.6947591,89.3352308 L101.143912,89.3352308 L101.143912,90.1543077 L98.6947591,90.1543077 L98.6947591,89.3352308 Z M93.8001606,89.3352308 L96.2493139,89.3352308 L96.2493139,90.1543077 L93.8001606,90.1543077 L93.8001606,89.3352308 Z M88.9074161,89.3352308 L91.3547153,89.3352308 L91.3547153,90.1543077 L88.9074161,90.1543077 L88.9074161,89.3352308 Z M84.0109635,89.3352308 L86.4582628,89.3352308 L86.4582628,90.1543077 L84.0109635,90.1543077 L84.0109635,89.3352308 Z M79.1145109,89.3352308 L81.5636642,89.3352308 L81.5636642,90.1543077 L79.1145109,90.1543077 L79.1145109,89.3352308 Z M74.2199124,89.3352308 L76.6672117,89.3352308 L76.6672117,90.1543077 L74.2199124,90.1543077 L74.2199124,89.3352308 Z M69.3271679,89.3352308 L71.7726131,89.3352308 L71.7726131,90.1543077 L69.3271679,90.1543077 L69.3271679,89.3352308 Z M64.4307153,89.3352308 L66.8780146,89.3352308 L66.8780146,90.1543077 L64.4307153,90.1543077 L64.4307153,89.3352308 Z M59.5361168,89.3352308 L61.9834161,89.3352308 L61.9834161,90.1543077 L59.5361168,90.1543077 L59.5361168,89.3352308 Z M54.6415182,89.3352308 L57.0888175,89.3352308 L57.0888175,90.1543077 L54.6415182,90.1543077 L54.6415182,89.3352308 Z M49.7469197,89.3352308 L52.194219,89.3352308 L52.194219,90.1543077 L49.7469197,90.1543077 L49.7469197,89.3352308 Z M44.8523212,89.3352308 L47.2996204,89.3352308 L47.2996204,90.1543077 L44.8523212,90.1543077 L44.8523212,89.3352308 Z M39.9577226,89.3352308 L42.4050219,89.3352308 L42.4050219,90.1543077 L39.9577226,90.1543077 L39.9577226,89.3352308 Z M35.0612701,89.3352308 L37.5085693,89.3352308 L37.5085693,90.1543077 L35.0612701,90.1543077 L35.0612701,89.3352308 Z M30.1666715,89.3352308 L32.6139708,89.3352308 L32.6139708,90.1543077 L30.1666715,90.1543077 L30.1666715,89.3352308 Z M25.270219,89.3352308 L27.7193723,89.3352308 L27.7193723,90.1543077 L25.270219,90.1543077 L25.270219,89.3352308 Z M20.3756204,89.3352308 L22.8247737,89.3352308 L22.8247737,90.1543077 L20.3756204,90.1543077 L20.3756204,89.3352308 Z M15.4810219,89.3352308 L17.9301752,89.3352308 L17.9301752,90.1543077 L15.4810219,90.1543077 L15.4810219,89.3352308 Z M10.5882774,89.3352308 L13.0355766,89.3352308 L13.0355766,90.1543077 L10.5882774,90.1543077 L10.5882774,89.3352308 Z M5.69182482,89.3352308 L8.1409781,89.3352308 L8.1409781,90.1543077 L5.69182482,90.1543077 L5.69182482,89.3352308 Z M0.797226277,89.3352308 L3.24452555,89.3352308 L3.24452555,90.1543077 L0.797226277,90.1543077 L0.797226277,89.3352308 Z" id="Fill-2" sketch:type="MSShapeGroup"></path>
            <path d="M250.440292,59.8670769 L252.887591,59.8670769 L252.887591,60.6842923 L250.440292,60.6842923 L250.440292,59.8670769 Z M245.545693,59.8670769 L247.992993,59.8670769 L247.992993,60.6842923 L245.545693,60.6842923 L245.545693,59.8670769 Z M240.649241,59.8670769 L243.098394,59.8670769 L243.098394,60.6842923 L240.649241,60.6842923 L240.649241,59.8670769 Z M235.752788,59.8670769 L238.201942,59.8670769 L238.201942,60.6842923 L235.752788,60.6842923 L235.752788,59.8670769 Z M230.860044,59.8670769 L233.309197,59.8670769 L233.309197,60.6842923 L230.860044,60.6842923 L230.860044,59.8670769 Z M225.965445,59.8670769 L228.412745,59.8670769 L228.412745,60.6842923 L225.965445,60.6842923 L225.965445,59.8670769 Z M221.070847,59.8670769 L223.518146,59.8670769 L223.518146,60.6842923 L221.070847,60.6842923 L221.070847,59.8670769 Z M216.174394,59.8670769 L218.621693,59.8670769 L218.621693,60.6842923 L216.174394,60.6842923 L216.174394,59.8670769 Z M211.279796,59.8670769 L213.727095,59.8670769 L213.727095,60.6842923 L211.279796,60.6842923 L211.279796,59.8670769 Z M206.385197,59.8670769 L208.832496,59.8670769 L208.832496,60.6842923 L206.385197,60.6842923 L206.385197,59.8670769 Z M201.490599,59.8670769 L203.937898,59.8670769 L203.937898,60.6842923 L201.490599,60.6842923 L201.490599,59.8670769 Z M196.594146,59.8670769 L199.041445,59.8670769 L199.041445,60.6842923 L196.594146,60.6842923 L196.594146,59.8670769 Z M191.699547,59.8670769 L194.146847,59.8670769 L194.146847,60.6842923 L191.699547,60.6842923 L191.699547,59.8670769 Z M186.804949,59.8670769 L189.252248,59.8670769 L189.252248,60.6842923 L186.804949,60.6842923 L186.804949,59.8670769 Z M181.91035,59.8670769 L184.35765,59.8670769 L184.35765,60.6842923 L181.91035,60.6842923 L181.91035,59.8670769 Z M177.015752,59.8670769 L179.463051,59.8670769 L179.463051,60.6842923 L177.015752,60.6842923 L177.015752,59.8670769 Z M172.121153,59.8670769 L174.568453,59.8670769 L174.568453,60.6842923 L172.121153,60.6842923 L172.121153,59.8670769 Z M167.226555,59.8670769 L169.673854,59.8670769 L169.673854,60.6842923 L167.226555,60.6842923 L167.226555,59.8670769 Z M162.331956,59.8670769 L164.779255,59.8670769 L164.779255,60.6842923 L162.331956,60.6842923 L162.331956,59.8670769 Z M157.435504,59.8670769 L159.882803,59.8670769 L159.882803,60.6842923 L157.435504,60.6842923 L157.435504,59.8670769 Z M152.539051,59.8670769 L154.988204,59.8670769 L154.988204,60.6842923 L152.539051,60.6842923 L152.539051,59.8670769 Z M147.646307,59.8670769 L150.091752,59.8670769 L150.091752,60.6842923 L147.646307,60.6842923 L147.646307,59.8670769 Z M142.751708,59.8670769 L145.199007,59.8670769 L145.199007,60.6842923 L142.751708,60.6842923 L142.751708,59.8670769 Z M137.855255,59.8670769 L140.302555,59.8670769 L140.302555,60.6842923 L137.855255,60.6842923 L137.855255,59.8670769 Z M132.960657,59.8670769 L135.407956,59.8670769 L135.407956,60.6842923 L132.960657,60.6842923 L132.960657,59.8670769 Z M128.067912,59.8670769 L130.513358,59.8670769 L130.513358,60.6842923 L128.067912,60.6842923 L128.067912,59.8670769 Z M123.17146,59.8670769 L125.618759,59.8670769 L125.618759,60.6842923 L123.17146,60.6842923 L123.17146,59.8670769 Z M118.276861,59.8670769 L120.724161,59.8670769 L120.724161,60.6842923 L118.276861,60.6842923 L118.276861,59.8670769 Z M113.380409,59.8670769 L115.827708,59.8670769 L115.827708,60.6842923 L113.380409,60.6842923 L113.380409,59.8670769 Z M108.48581,59.8670769 L110.933109,59.8670769 L110.933109,60.6842923 L108.48581,60.6842923 L108.48581,59.8670769 Z M103.589358,59.8670769 L106.038511,59.8670769 L106.038511,60.6842923 L103.589358,60.6842923 L103.589358,59.8670769 Z M98.6947591,59.8670769 L101.143912,59.8670769 L101.143912,60.6842923 L98.6947591,60.6842923 L98.6947591,59.8670769 Z M93.8001606,59.8670769 L96.2493139,59.8670769 L96.2493139,60.6842923 L93.8001606,60.6842923 L93.8001606,59.8670769 Z M88.9074161,59.8670769 L91.3547153,59.8670769 L91.3547153,60.6842923 L88.9074161,60.6842923 L88.9074161,59.8670769 Z M84.0109635,59.8670769 L86.4582628,59.8670769 L86.4582628,60.6842923 L84.0109635,60.6842923 L84.0109635,59.8670769 Z M79.1145109,59.8670769 L81.5636642,59.8670769 L81.5636642,60.6842923 L79.1145109,60.6842923 L79.1145109,59.8670769 Z M74.2199124,59.8670769 L76.6672117,59.8670769 L76.6672117,60.6842923 L74.2199124,60.6842923 L74.2199124,59.8670769 Z M69.3271679,59.8670769 L71.7726131,59.8670769 L71.7726131,60.6842923 L69.3271679,60.6842923 L69.3271679,59.8670769 Z M64.4307153,59.8670769 L66.8780146,59.8670769 L66.8780146,60.6842923 L64.4307153,60.6842923 L64.4307153,59.8670769 Z M59.5361168,59.8670769 L61.9834161,59.8670769 L61.9834161,60.6842923 L59.5361168,60.6842923 L59.5361168,59.8670769 Z M54.6415182,59.8670769 L57.0888175,59.8670769 L57.0888175,60.6842923 L54.6415182,60.6842923 L54.6415182,59.8670769 Z M49.7469197,59.8670769 L52.194219,59.8670769 L52.194219,60.6842923 L49.7469197,60.6842923 L49.7469197,59.8670769 Z M44.8523212,59.8670769 L47.2996204,59.8670769 L47.2996204,60.6842923 L44.8523212,60.6842923 L44.8523212,59.8670769 Z M39.9577226,59.8670769 L42.4050219,59.8670769 L42.4050219,60.6842923 L39.9577226,60.6842923 L39.9577226,59.8670769 Z M35.0612701,59.8670769 L37.5085693,59.8670769 L37.5085693,60.6842923 L35.0612701,60.6842923 L35.0612701,59.8670769 Z M30.1666715,59.8670769 L32.6139708,59.8670769 L32.6139708,60.6842923 L30.1666715,60.6842923 L30.1666715,59.8670769 Z M25.270219,59.8670769 L27.7193723,59.8670769 L27.7193723,60.6842923 L25.270219,60.6842923 L25.270219,59.8670769 Z M20.3756204,59.8670769 L22.8247737,59.8670769 L22.8247737,60.6842923 L20.3756204,60.6842923 L20.3756204,59.8670769 Z M15.4810219,59.8670769 L17.9301752,59.8670769 L17.9301752,60.6842923 L15.4810219,60.6842923 L15.4810219,59.8670769 Z M10.5882774,59.8670769 L13.0355766,59.8670769 L13.0355766,60.6842923 L10.5882774,60.6842923 L10.5882774,59.8670769 Z M5.69182482,59.8670769 L8.1409781,59.8670769 L8.1409781,60.6842923 L5.69182482,60.6842923 L5.69182482,59.8670769 Z M0.797226277,59.8670769 L3.24452555,59.8670769 L3.24452555,60.6842923 L0.797226277,60.6842923 L0.797226277,59.8670769 Z" id="Fill-3" sketch:type="MSShapeGroup"></path>
            <path d="M250.440292,30.3970615 L252.887591,30.3970615 L252.887591,31.2142769 L250.440292,31.2142769 L250.440292,30.3970615 Z M245.545693,30.3970615 L247.992993,30.3970615 L247.992993,31.2142769 L245.545693,31.2142769 L245.545693,30.3970615 Z M240.649241,30.3970615 L243.098394,30.3970615 L243.098394,31.2142769 L240.649241,31.2142769 L240.649241,30.3970615 Z M235.752788,30.3970615 L238.201942,30.3970615 L238.201942,31.2142769 L235.752788,31.2142769 L235.752788,30.3970615 Z M230.860044,30.3970615 L233.309197,30.3970615 L233.309197,31.2142769 L230.860044,31.2142769 L230.860044,30.3970615 Z M225.965445,30.3970615 L228.412745,30.3970615 L228.412745,31.2142769 L225.965445,31.2142769 L225.965445,30.3970615 Z M221.070847,30.3970615 L223.518146,30.3970615 L223.518146,31.2142769 L221.070847,31.2142769 L221.070847,30.3970615 Z M216.174394,30.3970615 L218.621693,30.3970615 L218.621693,31.2142769 L216.174394,31.2142769 L216.174394,30.3970615 Z M211.279796,30.3970615 L213.727095,30.3970615 L213.727095,31.2142769 L211.279796,31.2142769 L211.279796,30.3970615 Z M206.385197,30.3970615 L208.832496,30.3970615 L208.832496,31.2142769 L206.385197,31.2142769 L206.385197,30.3970615 Z M201.490599,30.3970615 L203.937898,30.3970615 L203.937898,31.2142769 L201.490599,31.2142769 L201.490599,30.3970615 Z M196.594146,30.3970615 L199.041445,30.3970615 L199.041445,31.2142769 L196.594146,31.2142769 L196.594146,30.3970615 Z M191.699547,30.3970615 L194.146847,30.3970615 L194.146847,31.2142769 L191.699547,31.2142769 L191.699547,30.3970615 Z M186.804949,30.3970615 L189.252248,30.3970615 L189.252248,31.2142769 L186.804949,31.2142769 L186.804949,30.3970615 Z M181.91035,30.3970615 L184.35765,30.3970615 L184.35765,31.2142769 L181.91035,31.2142769 L181.91035,30.3970615 Z M177.015752,30.3970615 L179.463051,30.3970615 L179.463051,31.2142769 L177.015752,31.2142769 L177.015752,30.3970615 Z M172.121153,30.3970615 L174.568453,30.3970615 L174.568453,31.2142769 L172.121153,31.2142769 L172.121153,30.3970615 Z M167.226555,30.3970615 L169.673854,30.3970615 L169.673854,31.2142769 L167.226555,31.2142769 L167.226555,30.3970615 Z M162.331956,30.3970615 L164.779255,30.3970615 L164.779255,31.2142769 L162.331956,31.2142769 L162.331956,30.3970615 Z M157.435504,30.3970615 L159.882803,30.3970615 L159.882803,31.2142769 L157.435504,31.2142769 L157.435504,30.3970615 Z M152.539051,30.3970615 L154.988204,30.3970615 L154.988204,31.2142769 L152.539051,31.2142769 L152.539051,30.3970615 Z M147.646307,30.3970615 L150.091752,30.3970615 L150.091752,31.2142769 L147.646307,31.2142769 L147.646307,30.3970615 Z M142.751708,30.3970615 L145.199007,30.3970615 L145.199007,31.2142769 L142.751708,31.2142769 L142.751708,30.3970615 Z M137.855255,30.3970615 L140.302555,30.3970615 L140.302555,31.2142769 L137.855255,31.2142769 L137.855255,30.3970615 Z M132.960657,30.3970615 L135.407956,30.3970615 L135.407956,31.2142769 L132.960657,31.2142769 L132.960657,30.3970615 Z M128.067912,30.3970615 L130.513358,30.3970615 L130.513358,31.2142769 L128.067912,31.2142769 L128.067912,30.3970615 Z M123.17146,30.3970615 L125.618759,30.3970615 L125.618759,31.2142769 L123.17146,31.2142769 L123.17146,30.3970615 Z M118.276861,30.3970615 L120.724161,30.3970615 L120.724161,31.2142769 L118.276861,31.2142769 L118.276861,30.3970615 Z M113.380409,30.3970615 L115.827708,30.3970615 L115.827708,31.2142769 L113.380409,31.2142769 L113.380409,30.3970615 Z M108.48581,30.3970615 L110.933109,30.3970615 L110.933109,31.2142769 L108.48581,31.2142769 L108.48581,30.3970615 Z M103.589358,30.3970615 L106.038511,30.3970615 L106.038511,31.2142769 L103.589358,31.2142769 L103.589358,30.3970615 Z M98.6947591,30.3970615 L101.143912,30.3970615 L101.143912,31.2142769 L98.6947591,31.2142769 L98.6947591,30.3970615 Z M93.8001606,30.3970615 L96.2493139,30.3970615 L96.2493139,31.2142769 L93.8001606,31.2142769 L93.8001606,30.3970615 Z M88.9074161,30.3970615 L91.3547153,30.3970615 L91.3547153,31.2142769 L88.9074161,31.2142769 L88.9074161,30.3970615 Z M84.0109635,30.3970615 L86.4582628,30.3970615 L86.4582628,31.2142769 L84.0109635,31.2142769 L84.0109635,30.3970615 Z M79.1145109,30.3970615 L81.5636642,30.3970615 L81.5636642,31.2142769 L79.1145109,31.2142769 L79.1145109,30.3970615 Z M74.2199124,30.3970615 L76.6672117,30.3970615 L76.6672117,31.2142769 L74.2199124,31.2142769 L74.2199124,30.3970615 Z M69.3271679,30.3970615 L71.7726131,30.3970615 L71.7726131,31.2142769 L69.3271679,31.2142769 L69.3271679,30.3970615 Z M64.4307153,30.3970615 L66.8780146,30.3970615 L66.8780146,31.2142769 L64.4307153,31.2142769 L64.4307153,30.3970615 Z M59.5361168,30.3970615 L61.9834161,30.3970615 L61.9834161,31.2142769 L59.5361168,31.2142769 L59.5361168,30.3970615 Z M54.6415182,30.3970615 L57.0888175,30.3970615 L57.0888175,31.2142769 L54.6415182,31.2142769 L54.6415182,30.3970615 Z M49.7469197,30.3970615 L52.194219,30.3970615 L52.194219,31.2142769 L49.7469197,31.2142769 L49.7469197,30.3970615 Z M44.8523212,30.3970615 L47.2996204,30.3970615 L47.2996204,31.2142769 L44.8523212,31.2142769 L44.8523212,30.3970615 Z M39.9577226,30.3970615 L42.4050219,30.3970615 L42.4050219,31.2142769 L39.9577226,31.2142769 L39.9577226,30.3970615 Z M35.0612701,30.3970615 L37.5085693,30.3970615 L37.5085693,31.2142769 L35.0612701,31.2142769 L35.0612701,30.3970615 Z M30.1666715,30.3970615 L32.6139708,30.3970615 L32.6139708,31.2142769 L30.1666715,31.2142769 L30.1666715,30.3970615 Z M25.270219,30.3970615 L27.7193723,30.3970615 L27.7193723,31.2142769 L25.270219,31.2142769 L25.270219,30.3970615 Z M20.3756204,30.3970615 L22.8247737,30.3970615 L22.8247737,31.2142769 L20.3756204,31.2142769 L20.3756204,30.3970615 Z M15.4810219,30.3970615 L17.9301752,30.3970615 L17.9301752,31.2142769 L15.4810219,31.2142769 L15.4810219,30.3970615 Z M10.5882774,30.3970615 L13.0355766,30.3970615 L13.0355766,31.2142769 L10.5882774,31.2142769 L10.5882774,30.3970615 Z M5.69182482,30.3970615 L8.1409781,30.3970615 L8.1409781,31.2142769 L5.69182482,31.2142769 L5.69182482,30.3970615 Z M0.797226277,30.3970615 L3.24452555,30.3970615 L3.24452555,31.2142769 L0.797226277,31.2142769 L0.797226277,30.3970615 Z" id="Fill-4" sketch:type="MSShapeGroup"></path>
            <path d="M250.440292,0.928907692 L252.887591,0.928907692 L252.887591,1.74612308 L250.440292,1.74612308 L250.440292,0.928907692 Z M245.545693,0.928907692 L247.992993,0.928907692 L247.992993,1.74612308 L245.545693,1.74612308 L245.545693,0.928907692 Z M240.649241,0.928907692 L243.098394,0.928907692 L243.098394,1.74612308 L240.649241,1.74612308 L240.649241,0.928907692 Z M235.752788,0.928907692 L238.201942,0.928907692 L238.201942,1.74612308 L235.752788,1.74612308 L235.752788,0.928907692 Z M230.860044,0.928907692 L233.309197,0.928907692 L233.309197,1.74612308 L230.860044,1.74612308 L230.860044,0.928907692 Z M225.965445,0.928907692 L228.412745,0.928907692 L228.412745,1.74612308 L225.965445,1.74612308 L225.965445,0.928907692 Z M221.070847,0.928907692 L223.518146,0.928907692 L223.518146,1.74612308 L221.070847,1.74612308 L221.070847,0.928907692 Z M216.174394,0.928907692 L218.621693,0.928907692 L218.621693,1.74612308 L216.174394,1.74612308 L216.174394,0.928907692 Z M211.279796,0.928907692 L213.727095,0.928907692 L213.727095,1.74612308 L211.279796,1.74612308 L211.279796,0.928907692 Z M206.385197,0.928907692 L208.832496,0.928907692 L208.832496,1.74612308 L206.385197,1.74612308 L206.385197,0.928907692 Z M201.490599,0.928907692 L203.937898,0.928907692 L203.937898,1.74612308 L201.490599,1.74612308 L201.490599,0.928907692 Z M196.594146,0.928907692 L199.041445,0.928907692 L199.041445,1.74612308 L196.594146,1.74612308 L196.594146,0.928907692 Z M191.699547,0.928907692 L194.146847,0.928907692 L194.146847,1.74612308 L191.699547,1.74612308 L191.699547,0.928907692 Z M186.804949,0.928907692 L189.252248,0.928907692 L189.252248,1.74612308 L186.804949,1.74612308 L186.804949,0.928907692 Z M181.91035,0.928907692 L184.35765,0.928907692 L184.35765,1.74612308 L181.91035,1.74612308 L181.91035,0.928907692 Z M177.015752,0.928907692 L179.463051,0.928907692 L179.463051,1.74612308 L177.015752,1.74612308 L177.015752,0.928907692 Z M172.121153,0.928907692 L174.568453,0.928907692 L174.568453,1.74612308 L172.121153,1.74612308 L172.121153,0.928907692 Z M167.226555,0.928907692 L169.673854,0.928907692 L169.673854,1.74612308 L167.226555,1.74612308 L167.226555,0.928907692 Z M162.331956,0.928907692 L164.779255,0.928907692 L164.779255,1.74612308 L162.331956,1.74612308 L162.331956,0.928907692 Z M157.435504,0.928907692 L159.882803,0.928907692 L159.882803,1.74612308 L157.435504,1.74612308 L157.435504,0.928907692 Z M152.539051,0.928907692 L154.988204,0.928907692 L154.988204,1.74612308 L152.539051,1.74612308 L152.539051,0.928907692 Z M147.646307,0.928907692 L150.091752,0.928907692 L150.091752,1.74612308 L147.646307,1.74612308 L147.646307,0.928907692 Z M142.751708,0.928907692 L145.199007,0.928907692 L145.199007,1.74612308 L142.751708,1.74612308 L142.751708,0.928907692 Z M137.855255,0.928907692 L140.302555,0.928907692 L140.302555,1.74612308 L137.855255,1.74612308 L137.855255,0.928907692 Z M132.960657,0.928907692 L135.407956,0.928907692 L135.407956,1.74612308 L132.960657,1.74612308 L132.960657,0.928907692 Z M128.067912,0.928907692 L130.513358,0.928907692 L130.513358,1.74612308 L128.067912,1.74612308 L128.067912,0.928907692 Z M123.17146,0.928907692 L125.618759,0.928907692 L125.618759,1.74612308 L123.17146,1.74612308 L123.17146,0.928907692 Z M118.276861,0.928907692 L120.724161,0.928907692 L120.724161,1.74612308 L118.276861,1.74612308 L118.276861,0.928907692 Z M113.380409,0.928907692 L115.827708,0.928907692 L115.827708,1.74612308 L113.380409,1.74612308 L113.380409,0.928907692 Z M108.48581,0.928907692 L110.933109,0.928907692 L110.933109,1.74612308 L108.48581,1.74612308 L108.48581,0.928907692 Z M103.589358,0.928907692 L106.038511,0.928907692 L106.038511,1.74612308 L103.589358,1.74612308 L103.589358,0.928907692 Z M98.6947591,0.928907692 L101.143912,0.928907692 L101.143912,1.74612308 L98.6947591,1.74612308 L98.6947591,0.928907692 Z M93.8001606,0.928907692 L96.2493139,0.928907692 L96.2493139,1.74612308 L93.8001606,1.74612308 L93.8001606,0.928907692 Z M88.9074161,0.928907692 L91.3547153,0.928907692 L91.3547153,1.74612308 L88.9074161,1.74612308 L88.9074161,0.928907692 Z M84.0109635,0.928907692 L86.4582628,0.928907692 L86.4582628,1.74612308 L84.0109635,1.74612308 L84.0109635,0.928907692 Z M79.1145109,0.928907692 L81.5636642,0.928907692 L81.5636642,1.74612308 L79.1145109,1.74612308 L79.1145109,0.928907692 Z M74.2199124,0.928907692 L76.6672117,0.928907692 L76.6672117,1.74612308 L74.2199124,1.74612308 L74.2199124,0.928907692 Z M69.3271679,0.928907692 L71.7726131,0.928907692 L71.7726131,1.74612308 L69.3271679,1.74612308 L69.3271679,0.928907692 Z M64.4307153,0.928907692 L66.8780146,0.928907692 L66.8780146,1.74612308 L64.4307153,1.74612308 L64.4307153,0.928907692 Z M59.5361168,0.928907692 L61.9834161,0.928907692 L61.9834161,1.74612308 L59.5361168,1.74612308 L59.5361168,0.928907692 Z M54.6415182,0.928907692 L57.0888175,0.928907692 L57.0888175,1.74612308 L54.6415182,1.74612308 L54.6415182,0.928907692 Z M49.7469197,0.928907692 L52.194219,0.928907692 L52.194219,1.74612308 L49.7469197,1.74612308 L49.7469197,0.928907692 Z M44.8523212,0.928907692 L47.2996204,0.928907692 L47.2996204,1.74612308 L44.8523212,1.74612308 L44.8523212,0.928907692 Z M39.9577226,0.928907692 L42.4050219,0.928907692 L42.4050219,1.74612308 L39.9577226,1.74612308 L39.9577226,0.928907692 Z M35.0612701,0.928907692 L37.5085693,0.928907692 L37.5085693,1.74612308 L35.0612701,1.74612308 L35.0612701,0.928907692 Z M30.1666715,0.928907692 L32.6139708,0.928907692 L32.6139708,1.74612308 L30.1666715,1.74612308 L30.1666715,0.928907692 Z M25.270219,0.928907692 L27.7193723,0.928907692 L27.7193723,1.74612308 L25.270219,1.74612308 L25.270219,0.928907692 Z M20.3756204,0.928907692 L22.8247737,0.928907692 L22.8247737,1.74612308 L20.3756204,1.74612308 L20.3756204,0.928907692 Z M15.4810219,0.928907692 L17.9301752,0.928907692 L17.9301752,1.74612308 L15.4810219,1.74612308 L15.4810219,0.928907692 Z M10.5882774,0.928907692 L13.0355766,0.928907692 L13.0355766,1.74612308 L10.5882774,1.74612308 L10.5882774,0.928907692 Z M5.69182482,0.928907692 L8.1409781,0.928907692 L8.1409781,1.74612308 L5.69182482,1.74612308 L5.69182482,0.928907692 Z M0.797226277,0.928907692 L3.24452555,0.928907692 L3.24452555,1.74612308 L0.797226277,1.74612308 L0.797226277,0.928907692 Z" id="Fill-5" sketch:type="MSShapeGroup"></path>
        </g>
        <g id="Imported-Layers-5" sketch:type="MSLayerGroup" transform="translate(-17.000000, 67.000000)">
            <path d="M34.1922794,66.3131912 L-0.0345441176,66.3131912 L4.49201471,89.1417353 L36.1203529,76.0456765 L34.1922794,66.3131912 L34.1922794,66.3131912 Z M44.0245588,87.8584853 L19.8193676,112.063676 L39.1627941,125.015162 L52.26525,93.3842647 L44.0245588,87.8584853 L44.0245588,87.8584853 Z M36.9558088,78.0697059 L5.32235294,91.1721618 L18.2712794,110.516868 L42.4751912,86.3103971 L36.9558088,78.0697059 L36.9558088,78.0697059 Z" id="Fill-1" fill="#FFFFFF" sketch:type="MSShapeGroup"></path>
            <path d="M66.2082794,96.1401176 L66.2082794,130.370779 L89.0445,125.848059 L75.9433235,94.2120441 L66.2082794,96.1401176 L66.2082794,96.1401176 Z M41.1881029,125.848059 L64.0179265,130.370779 L64.0179265,96.1401176 L54.2905588,94.2120441 L41.1881029,125.848059 L41.1881029,125.848059 Z M93.2780735,78.0671471 L87.7561324,86.3116765 L111.960044,110.515588 L124.908971,91.1721618 L93.2780735,78.0671471 L93.2780735,78.0671471 Z M77.9660735,93.3791471 L91.0710882,125.013882 L110.411956,112.063676 L86.2067647,87.8597647 L77.9660735,93.3791471 L77.9660735,93.3791471 Z" id="Fill-2" fill="#2D3E50" sketch:type="MSShapeGroup"></path>
            <path d="M94.1096912,76.0443971 L125.741868,89.1417353 L130.264588,66.3131912 L96.0390441,66.3131912 L94.1096912,76.0443971 L94.1096912,76.0443971 Z M96.0390441,64.1253971 L130.264588,64.1253971 L125.740588,41.2917353 L94.1109706,54.3954706 L96.0390441,64.1253971 L96.0390441,64.1253971 Z M91.0698088,5.41958824 L77.9660735,37.0568824 L86.2080441,42.5762647 L110.411956,18.3723529 L91.0698088,5.41958824 L91.0698088,5.41958824 Z M111.958765,19.9204412 L87.7574118,44.1243529 L93.2767941,52.3663235 L124.908971,39.2702647 L111.958765,19.9204412 L111.958765,19.9204412 Z" id="Fill-3" fill="#E64C66" sketch:type="MSShapeGroup"></path>
            <path d="M5.32235294,39.2702647 L36.9558088,52.3650441 L42.4751912,44.1269118 L18.2712794,19.9217206 L5.32235294,39.2702647 L5.32235294,39.2702647 Z M66.2082794,0.0678088235 L66.2082794,34.2959118 L75.9420441,36.2188676 L89.0432206,4.59308824 L66.2082794,0.0678088235 L66.2082794,0.0678088235 Z M-0.0345441176,64.1253971 L34.191,64.1253971 L36.1203529,54.3954706 L4.49201471,41.2930147 L-0.0345441176,64.1253971 L-0.0345441176,64.1253971 Z M19.8193676,18.3749118 L44.0232794,42.5788235 L52.26525,37.0568824 L39.1615147,5.41958824 L19.8193676,18.3749118 L19.8193676,18.3749118 Z M54.2892794,36.2188676 L64.0192059,34.2959118 L64.0192059,0.0678088235 L41.1855441,4.59308824 L54.2892794,36.2188676 L54.2892794,36.2188676 Z" id="Fill-4" fill="#F6A623" sketch:type="MSShapeGroup"></path>
            <path d="M52.8064412,64.0959706 L77.2227353,64.0959706 L77.2227353,66.31575 L52.8064412,66.31575 L52.8064412,64.0959706 Z" id="Fill-5" fill="#494942" sketch:type="MSShapeGroup"></path>
            <path d="M63.9040588,52.9957941 L66.1238382,52.9957941 L66.1238382,77.4133676 L63.9040588,77.4133676 L63.9040588,52.9957941 Z" id="Fill-6" fill="#494942" sketch:type="MSShapeGroup"></path>
        </g>
        <g id="Imported-Layers-4" sketch:type="MSLayerGroup" transform="translate(135.757812, 86.242188) rotate(14.000000) translate(-135.757812, -86.242188) translate(102.757812, 41.242188)" fill="#FFFFFF">
            <path d="M65.83,12.441 L54.396,0.35 L0.152,0.35 L0.152,89.898 L65.848,89.898 L65.83,12.441 L65.83,12.441 Z M59.351,17.609 L59.351,83.47 L6.509,83.47 L6.509,6.777 L49.111,6.777 L49.111,17.602 L59.351,17.609 L59.351,17.609 Z" id="Fill-1" sketch:type="MSShapeGroup"></path>
            <path d="M9.23,28.835 L40.971,28.835 L40.971,33.53 L9.23,33.53 L9.23,28.835 Z" id="Fill-2" sketch:type="MSShapeGroup"></path>
            <path d="M51.623,33.068 L48.485,29.93 L49.719,28.695 L51.623,30.6 L55.427,26.796 L55.427,26.214 L45.488,26.214 L45.488,36.152 L55.427,36.152 L55.427,29.265 L51.623,33.068" id="Fill-3" sketch:type="MSShapeGroup"></path>
            <path d="M9.23,43.554 L40.971,43.554 L40.971,48.25 L9.23,48.25 L9.23,43.554 Z" id="Fill-4" sketch:type="MSShapeGroup"></path>
            <path d="M45.488,50.871 L55.426,50.871 L55.426,40.933 L45.488,40.933 L45.488,50.871 Z" id="Fill-5" sketch:type="MSShapeGroup"></path>
            <path d="M9.23,58.815 L40.971,58.815 L40.971,63.51 L9.23,63.51 L9.23,58.815 Z" id="Fill-6" sketch:type="MSShapeGroup"></path>
            <path d="M45.488,56.194 L55.426,56.194 L55.426,66.132 L45.488,66.132 L45.488,56.194 Z" id="Fill-7" sketch:type="MSShapeGroup"></path>
        </g>
    </g>
</svg>