<svg width="39" height="39" viewBox="0 0 39 39" xmlns="http://www.w3.org/2000/svg"><title>fb</title><desc>Created with Sketch.</desc><defs><filter x="-50%" y="-50%" width="200%" height="200%" filterUnits="objectBoundingBox" id="a"><feOffset dy="1" in="SourceAlpha" result="shadowOffsetOuter1"/><feGaussianBlur stdDeviation="1" in="shadowOffsetOuter1" result="shadowBlurOuter1"/><feColorMatrix values="0 0 0 0 0 0 0 0 0 0 0 0 0 0 0 0 0 0 0.35 0" in="shadowBlurOuter1" result="shadowMatrixOuter1"/><feMerge><feMergeNode in="shadowMatrixOuter1"/><feMergeNode in="SourceGraphic"/></feMerge></filter></defs><g transform="translate(2 1)" fill="none"><circle fill="#618DDD" filter="url(#a)" cx="17.5" cy="17.5" r="17.5"/><path d="M24.336 6v4.368c-.268 0-.525-.003-.782 0-.717.01-1.435-.006-2.15.037-.596.037-.844.295-.86.893-.028.93-.01 1.865-.01 2.85h3.816l-.367 4.143H20.53v12.432h-4.953v-12.34H13v-4.22h2.564V12.78c.003-.826-.017-1.653.02-2.477.096-2.256 1.337-3.766 3.572-4.056 1.69-.218 3.413-.17 5.18-.244l76.188 58.866" fill="#fff"/></g></svg>