<?xml version="1.0" encoding="UTF-8" standalone="no"?>
<svg width="39px" height="39px" viewBox="0 0 39 39" version="1.1" xmlns="http://www.w3.org/2000/svg" xmlns:xlink="http://www.w3.org/1999/xlink" xmlns:sketch="http://www.bohemiancoding.com/sketch/ns">
    <!-- Generator: Sketch 3.0.3 (7891) - http://www.bohemiancoding.com/sketch -->
    <title>location</title>
    <desc>Created with Sketch.</desc>
    <defs>
        <filter x="-50%" y="-50%" width="200%" height="200%" filterUnits="objectBoundingBox" id="filter-1">
            <feOffset dx="0" dy="1" in="SourceAlpha" result="shadowOffsetOuter1"></feOffset>
            <feGaussianBlur stdDeviation="1" in="shadowOffsetOuter1" result="shadowBlurOuter1"></feGaussianBlur>
            <feColorMatrix values="0 0 0 0 0   0 0 0 0 0   0 0 0 0 0  0 0 0 0.35 0" in="shadowBlurOuter1" type="matrix" result="shadowMatrixOuter1"></feColorMatrix>
            <feMerge>
                <feMergeNode in="shadowMatrixOuter1"></feMergeNode>
                <feMergeNode in="SourceGraphic"></feMergeNode>
            </feMerge>
        </filter>
    </defs>
    <g id="Page-1" stroke="none" stroke-width="1" fill="none" fill-rule="evenodd" sketch:type="MSPage">
        <g id="Oval-6-+-Imported-Layers-4" sketch:type="MSLayerGroup" transform="translate(2.000000, 1.000000)">
            <circle id="Oval-6" fill="#4A4A4A" filter="url(#filter-1)" sketch:type="MSShapeGroup" cx="17.5" cy="17.5" r="17.5"></circle>
            <path d="M8.99798299,13.164812 C9.08256324,10.0155351 10.6357546,7.46853096 13.6613348,5.98474997 C16.7268966,4.48134088 19.77252,4.7816508 22.5382731,6.8406384 C25.6357361,9.14673344 26.6683287,13.2615062 25.040841,16.695907 C23.1820694,20.6178078 21.2755509,24.5177045 19.439341,28.449626 C18.7268102,29.9752458 17.0395077,30.2789648 16.0099583,29.3399153 C15.762304,29.1140888 15.5676435,28.8066508 15.4212546,28.5027252 C13.4789521,24.4680144 11.5512361,20.4265888 9.61533484,16.3887789 C9.15769904,15.4340268 9.0221188,14.4201839 8.99798299,13.164812 L8.99798299,13.164812 Z M13.2060309,13.341974 C13.221142,15.6170773 15.1185309,17.4695566 17.4215062,17.4573665 C19.7264753,17.4451765 21.6061296,15.5753418 21.5976296,13.3026145 C21.5892346,11.0379451 19.6819815,9.17782109 17.3817346,9.19135415 C15.075716,9.20488721 13.1909198,11.0783376 13.2060309,13.341974 L13.2060309,13.341974 Z" id="Imported-Layers-4" fill="#FFFFFF" sketch:type="MSShapeGroup"></path>
        </g>
    </g>
</svg>