<svg width="39" height="39" viewBox="0 0 39 39" xmlns="http://www.w3.org/2000/svg"><title>location</title><desc>Created with Sketch.</desc><defs><filter x="-50%" y="-50%" width="200%" height="200%" filterUnits="objectBoundingBox" id="a"><feOffset dy="1" in="SourceAlpha" result="shadowOffsetOuter1"/><feGaussianBlur stdDeviation="1" in="shadowOffsetOuter1" result="shadowBlurOuter1"/><feColorMatrix values="0 0 0 0 0 0 0 0 0 0 0 0 0 0 0 0 0 0 0.35 0" in="shadowBlurOuter1" result="shadowMatrixOuter1"/><feMerge><feMergeNode in="shadowMatrixOuter1"/><feMergeNode in="SourceGraphic"/></feMerge></filter></defs><g transform="translate(2 1)" fill="none"><circle fill="#4A4A4A" filter="url(#a)" cx="17.5" cy="17.5" r="17.5"/><path d="M8.998 13.165c.085-3.15 1.638-5.696 4.663-7.18 3.067-1.504 6.113-1.203 8.878.856 3.098 2.307 4.13 6.422 2.503 9.856-1.858 3.922-3.764 7.822-5.6 11.754-.713 1.525-2.4 1.83-3.43.89-.248-.226-.442-.533-.59-.837-1.94-4.035-3.87-8.076-5.805-12.114-.457-.956-.593-1.97-.617-3.225zm4.208.177c.015 2.275 1.913 4.128 4.216 4.115 2.304-.012 4.184-1.882 4.176-4.154-.01-2.265-1.916-4.125-4.216-4.112-2.306.015-4.19 1.888-4.176 4.152z" fill="#fff"/></g></svg>