<svg width="39" height="39" viewBox="0 0 39 39" xmlns="http://www.w3.org/2000/svg"><title>news</title><desc>Created with Sketch.</desc><defs><filter x="-50%" y="-50%" width="200%" height="200%" filterUnits="objectBoundingBox" id="a"><feOffset dy="1" in="SourceAlpha" result="shadowOffsetOuter1"/><feGaussianBlur stdDeviation="1" in="shadowOffsetOuter1" result="shadowBlurOuter1"/><feColorMatrix values="0 0 0 0 0 0 0 0 0 0 0 0 0 0 0 0 0 0 0.35 0" in="shadowBlurOuter1" result="shadowMatrixOuter1"/><feMerge><feMergeNode in="shadowMatrixOuter1"/><feMergeNode in="SourceGraphic"/></feMerge></filter></defs><g transform="translate(2 1)" fill="none"><circle fill="#DD6C61" filter="url(#a)" cx="17.5" cy="17.5" r="17.5"/><g fill="#fff"><path d="M7.15 20.744c-.818-.71-1.63-1.3-2.304-2.022C2.62 16.34 2.5 13.104 4.504 10.63c1.35-1.67 3.137-2.72 5.174-3.31 3.353-.973 6.678-.878 9.91.526 1.942.845 3.558 2.084 4.543 4 1.12 2.173.703 4.91-.94 6.734-1.862 2.064-4.24 3.1-6.934 3.55-1.502.25-3.005.246-4.508.002-.352-.057-.652 0-.966.208-1.51.994-3.17 1.623-4.96 1.886-.21.03-.557-.092-.65-.252-.09-.16-.013-.507.116-.68.397-.537.876-1.013 1.28-1.545.25-.33.42-.722.58-1.006"/><path d="M26.51 24.607c.477.66.932 1.306 1.406 1.937.185.247.454.44.605.703.105.18.167.492.075.643-.094.155-.412.283-.606.253-1.757-.262-3.402-.85-4.88-1.83-.442-.29-.854-.296-1.34-.236-3.078.382-6.015-.028-8.73-1.602-.068-.04-.13-.087-.302-.205.312 0 .51-.004.71 0 3.23.063 6.26-.626 8.966-2.432 2.115-1.41 3.63-3.276 4.173-5.808.25-1.166.206-2.327-.094-3.48-.02-.075-.03-.153-.064-.334 2.093 1.232 3.726 2.75 4.13 5.133.572 3.355-1.32 5.487-4.05 7.257"/></g></g></svg>