<?xml version="1.0" encoding="UTF-8" standalone="no"?>
<svg width="39px" height="39px" viewBox="0 0 39 39" version="1.1" xmlns="http://www.w3.org/2000/svg" xmlns:xlink="http://www.w3.org/1999/xlink" xmlns:sketch="http://www.bohemiancoding.com/sketch/ns">
    <!-- Generator: Sketch 3.0.3 (7891) - http://www.bohemiancoding.com/sketch -->
    <title>news</title>
    <desc>Created with Sketch.</desc>
    <defs>
        <filter x="-50%" y="-50%" width="200%" height="200%" filterUnits="objectBoundingBox" id="filter-1">
            <feOffset dx="0" dy="1" in="SourceAlpha" result="shadowOffsetOuter1"></feOffset>
            <feGaussianBlur stdDeviation="1" in="shadowOffsetOuter1" result="shadowBlurOuter1"></feGaussianBlur>
            <feColorMatrix values="0 0 0 0 0   0 0 0 0 0   0 0 0 0 0  0 0 0 0.35 0" in="shadowBlurOuter1" type="matrix" result="shadowMatrixOuter1"></feColorMatrix>
            <feMerge>
                <feMergeNode in="shadowMatrixOuter1"></feMergeNode>
                <feMergeNode in="SourceGraphic"></feMergeNode>
            </feMerge>
        </filter>
    </defs>
    <g id="Page-1" stroke="none" stroke-width="1" fill="none" fill-rule="evenodd" sketch:type="MSPage">
        <g id="Oval-6-+-Imported-Layers-4" sketch:type="MSLayerGroup" transform="translate(2.000000, 1.000000)">
            <circle id="Oval-6" fill="#DD6C61" filter="url(#filter-1)" sketch:type="MSShapeGroup" cx="17.5" cy="17.5" r="17.5"></circle>
            <g id="Imported-Layers-4" transform="translate(3.000000, 7.000000)" fill="#FFFFFF" sketch:type="MSShapeGroup">
                <path d="M4.14915609,13.7440076 C3.33197656,13.0342607 2.51873999,12.4426258 1.84567583,11.7223279 C-0.380719472,9.33927809 -0.500092743,6.10375038 1.50421504,3.6285751 C2.85517349,1.96015691 4.64094243,0.911411778 6.67846969,0.319874585 C10.031173,-0.65335308 13.3564727,-0.557710651 16.5877327,0.846445265 C18.5303331,1.69071685 20.1463573,2.9296722 21.1312115,4.84535392 C22.2485492,7.01855704 21.8331579,9.75535686 20.1890399,11.579597 C18.3283547,13.643969 15.9487752,14.6808931 13.2555328,15.1293086 C11.7539531,15.3793076 10.2506976,15.3755952 8.74832927,15.1323371 C8.39632106,15.0753815 8.09606426,15.1324348 7.78151421,15.3398392 C6.27333002,16.3340711 4.61245451,16.9630251 2.82165829,17.2262127 C2.61179396,17.257084 2.26471445,17.1336965 2.17274479,16.9736737 C2.08116942,16.8144325 2.15914156,16.4667395 2.28797795,16.2928442 C2.68503454,15.7569926 3.16430196,15.2814182 3.56737158,14.7493766 C3.81774987,14.4188778 3.98788882,14.0284926 4.14915609,13.7440076" id="Fill-1"></path>
                <path d="M23.5087209,17.6074147 C23.986904,18.2681193 24.4423165,18.9129974 24.9159652,19.5441983 C25.1013831,19.7912665 25.3696033,19.9842121 25.5214075,20.2466182 C25.6252061,20.4261798 25.687012,20.7393868 25.5954367,20.8900309 C25.5012984,21.0446805 25.1830025,21.1726597 24.9885158,21.1434492 C23.2333048,20.88075 21.5882997,20.2930229 20.1097863,19.3139336 C19.6681742,19.0215354 19.2557401,19.0167484 18.7697696,19.0770256 C15.6915953,19.4589115 12.7552691,19.048792 10.0395518,17.4754301 C9.97202852,17.4362548 9.91012397,17.3876032 9.73801354,17.2696865 C10.0501978,17.2696865 10.249219,17.2663649 10.4481416,17.2702727 C13.6781201,17.3329923 16.7089789,16.6437611 19.4140501,14.8384736 C21.5286624,13.427186 23.0444368,11.5624028 23.5870873,9.0295881 C23.836677,7.86429403 23.7929101,6.70320079 23.4932448,5.55050924 C23.4736285,5.47508947 23.463574,5.39712965 23.4292702,5.21620036 C25.5229847,6.44773097 27.155668,7.96609118 27.5610048,10.3489456 C28.1320448,13.7052231 26.2406044,15.8369063 23.5087209,17.6074147" id="Fill-2"></path>
            </g>
        </g>
    </g>
</svg>