<svg width="39" height="39" viewBox="0 0 39 39" xmlns="http://www.w3.org/2000/svg"><title>search</title><desc>Created with Sketch.</desc><defs><filter x="-50%" y="-50%" width="200%" height="200%" filterUnits="objectBoundingBox" id="a"><feOffset dy="1" in="SourceAlpha" result="shadowOffsetOuter1"/><feGaussianBlur stdDeviation="1" in="shadowOffsetOuter1" result="shadowBlurOuter1"/><feColorMatrix values="0 0 0 0 0 0 0 0 0 0 0 0 0 0 0 0 0 0 0.35 0" in="shadowBlurOuter1" result="shadowMatrixOuter1"/><feMerge><feMergeNode in="shadowMatrixOuter1"/><feMergeNode in="SourceGraphic"/></feMerge></filter></defs><g transform="translate(2 1)" fill="none"><circle fill="#F6A623" filter="url(#a)" cx="17.5" cy="17.5" r="17.5"/><path d="M20.583 23.883c-4.89 3.267-10.575 1.204-12.98-2.334C5.1 17.862 5.56 12.714 8.766 9.63c3.387-3.26 8.49-3.526 12.27-.59 3.325 2.58 4.878 7.936 1.87 12.483.097.104.198.216.304.322 1.34 1.342 2.68 2.684 4.022 4.022.474.472.767 1.01.612 1.698-.298 1.32-1.84 1.783-2.828.838-.914-.874-1.798-1.777-2.684-2.68-.6-.608-1.178-1.237-1.75-1.84zm.558-7.578c.026-3.255-2.58-5.903-5.842-5.937-3.256-.034-5.934 2.583-5.957 5.82-.023 3.3 2.562 5.95 5.843 5.985 3.27.035 5.932-2.587 5.958-5.868z" fill="#fff"/></g></svg>