<svg width="25" height="25" viewBox="0 0 25 25" xmlns="http://www.w3.org/2000/svg"><title>Triangle 2</title><desc>Created with Sketch.</desc><g fill="none"><path d="M-29.664 0v4.368c-.268 0-.525-.003-.782 0-.717.01-1.435-.006-2.15.037-.596.037-.844.295-.86.893-.028.93-.01 1.865-.01 2.85h3.816l-.367 4.143h-3.452v12.432h-4.953v-12.34H-41v-4.22h2.564V6.78c.003-.826-.017-1.653.02-2.477.096-2.256 1.337-3.766 3.572-4.056 1.69-.218 3.413-.17 5.18-.244l76.188 58.866" fill="#fff"/><path d="M0 25V0l25 12.5L0 25z" fill="#DD6C61"/></g></svg>